<svg id="layout" xmlns="http://www.w3.org/2000/svg" viewBox="0 0 150 150">
  <defs>
    <style>
      .cls-1 {
        fill: #25477b;
      }

      .cls-2 {
        fill: #fff;
      }

      .cls-3 {
        fill: #56a1d5;
      }
    </style>
  </defs>
  <title>geotab-drive-partner-add-ins-icon</title>
  <g>
    <g>
      <g>
        <path class="cls-1" d="M122.48432,39.59945A5.11435,5.11435,0,0,0,117.38487,34.5H32.51549A5.11446,5.11446,0,0,0,27.416,39.59945V100.465a5.11446,5.11446,0,0,0,5.09945,5.09945h84.86938a5.11435,5.11435,0,0,0,5.09945-5.09945V49.4341h0Z"/>
        <path class="cls-2" d="M29.96575,49.43412v51.03094a2.5562,2.5562,0,0,0,2.54972,2.54955h84.86938a2.55232,2.55232,0,0,0,2.54972-2.54955V49.43412Z"/>
        <circle class="cls-2" cx="34.05173" cy="41.96707" r="2.17686"/>
        <circle class="cls-2" cx="40.14445" cy="41.96707" r="2.17686"/>
        <circle class="cls-2" cx="46.23717" cy="41.96707" r="2.17686"/>
      </g>
      <g id="_Group_" data-name="&lt;Group&gt;">
        <polygon id="_Path_" data-name="&lt;Path&gt;" class="cls-3" points="71.903 63.075 74.956 74.097 77.985 63.186 78.875 63.319 82.475 63.856 80.711 62.092 79.541 60.922 78.815 60.196 74.95 56.331 71.101 60.181 70.376 60.905 69.38 61.902 67.741 63.54 71.005 63.176 71.903 63.075"/>
        <polygon id="_Path_2" data-name="&lt;Path&gt;" class="cls-3" points="62.267 78.819 73.289 75.765 62.379 72.735 62.511 71.846 63.05 68.232 61.276 70.005 60.104 71.178 59.38 71.902 55.517 75.764 59.373 79.621 60.099 80.346 61.097 81.344 62.735 82.983 62.368 79.717 62.267 78.819"/>
        <polygon id="_Path_3" data-name="&lt;Path&gt;" class="cls-3" points="90.531 71.912 89.808 71.189 88.823 70.204 87.181 68.562 87.547 71.815 87.647 72.711 76.626 75.765 87.536 78.795 87.403 79.686 86.864 83.284 88.637 81.511 89.797 80.351 90.523 79.624 94.383 75.764 90.531 71.912"/>
        <polygon id="_Path_4" data-name="&lt;Path&gt;" class="cls-3" points="78.01 88.454 74.956 77.434 71.927 88.344 71.038 88.211 67.426 87.673 69.194 89.441 70.37 90.617 71.095 91.342 74.95 95.197 78.809 91.339 79.532 90.615 80.522 89.625 82.158 87.99 78.906 88.354 78.01 88.454"/>
      </g>
    </g>
    <path class="cls-3" d="M31.49437,115.078,43.94052,95.08532a.89412.89412,0,0,0-.83645-1.3633L19.64222,95.76073a.89412.89412,0,0,0-.50006,1.57339l5.75275,4.8665-11.45406,7.02765a3.09565,3.09565,0,0,0-1.01968,4.2575h0a3.09565,3.09565,0,0,0,4.2575,1.01968l11.45406-7.02765,1.73242,7.33326A.89412.89412,0,0,0,31.49437,115.078Z"/>
  </g>
</svg>
