<svg id="layout" xmlns="http://www.w3.org/2000/svg" viewBox="0 0 150 150">
  <defs>
    <style>
      .cls-1, .cls-3 {
        fill: #25477b;
      }

      .cls-1, .cls-4 {
        fill-rule: evenodd;
      }

      .cls-2, .cls-4 {
        fill: #56a1d5;
      }
    </style>
  </defs>
  <title>geotab-drive-partner-add-ons-icon</title>
  <g>
    <path class="cls-1" d="M88.14433,61.66728a5.35188,5.35188,0,0,0,.68184-2.57006,2.57147,2.57147,0,0,0-2.01067-2.55255L74.85689,55.12849a174.30344,174.30344,0,0,0-23.30533-2.46512,27.63694,27.63694,0,0,0-8.10937.66148c-.05738.01557-.11486.02962-.1731.0425L6.51445,61.49242c-2.15034.59444-2.605,1.55605-2.605,1.55605-1.31131.89164-1.62594.979-1.85317,4.00364a126.53834,126.53834,0,0,0,.53313,18.65474A4.39022,4.39022,0,0,0,4.753,89.37838,63.1598,63.1598,0,0,0,17.49794,94.2822a4.78032,4.78032,0,0,0,1.16888.14451,4.80851,4.80851,0,0,1,1.48989.23734,49.04555,49.04555,0,0,0,7.72655,1.79488,1.16475,1.16475,0,0,1,.5294.21826,1.16647,1.16647,0,0,0,.48554.21155,148.819,148.819,0,0,0,15.23573,1.84207.42767.42767,0,0,1,.26555.1159.42846.42846,0,0,0,.294.11691h3.06963a2.69715,2.69715,0,0,0,.40953-.03106A8.96623,8.96623,0,0,0,52.31207,97.023L85.50425,79.22053c2.168-1.69585,3.60158-7.0982,3.60158-10.17531A23.42464,23.42464,0,0,0,88.14433,61.66728ZM47.75776,94.973a1.9926,1.9926,0,0,1-1.95813,1.69588c-1.80079.13988-23.91729-1.60845-40.80621-8.88156A2.36106,2.36106,0,0,1,3.55979,85.4796a120.54983,120.54983,0,0,1-.45456-14.65105c.04982-2.70353.144-4.25293.19407-4.92019a1.25361,1.25361,0,0,1,.8774-1.11067,1.99137,1.99137,0,0,1,.68637-.07345c.02848.00152.05722.0046.08543.00865l13.0756,1.86546a.57512.57512,0,0,0,.23085-.014l.21994-.05919a.57457.57457,0,0,1,.24389-.012L27.757,68.0167a.57538.57538,0,0,1,.32522.17408.576.576,0,0,0,.31457.17214L45.48261,71.5418c.01352.0025.02661.0054.03992.00886a7.816,7.816,0,0,1,1.57612.604,1.90958,1.90958,0,0,1,.94947,1.27544,28.0429,28.0429,0,0,1,.42651,5.00373A139.69149,139.69149,0,0,1,47.75776,94.973ZM68.86017,80.16452c-.025.01182-.05073.02241-.07659.032l-1.844.688a.95479.95479,0,0,1-1.185-.4486,2.33957,2.33957,0,0,1-.21919-1.07559,2.24762,2.24762,0,0,1,.94415-2.01059l2.05171-.635a.928.928,0,0,1,.59593.00881c.29249.10842.62164.40088.62164,1.16821C69.74886,79.03093,69.817,79.71,68.86017,80.16452Zm15.10277-8.2217-.10981.159a.64362.64362,0,0,0-.10976.449,11.31038,11.31038,0,0,1,.07532,2.23494,7.7012,7.7012,0,0,1-.49619,2.26164.24254.24254,0,0,0,.06909.2709.24392.24392,0,0,1,.06105.29033,6.57986,6.57986,0,0,1-.54537.953.73328.73328,0,0,1-.26358.22845L71.982,84.24906a.72768.72768,0,0,1-1.0349-.457,12.15246,12.15246,0,0,1,1.22423-8.80864.71911.71911,0,0,1,.57033-.3801l1.18878-.11188a3.90514,3.90514,0,0,0,1.25628-.33581l7.74832-3.54024a.72855.72855,0,0,1,1.01345.50233c.03119.13778.063.29006.09389.45454A.49218.49218,0,0,1,83.96294,71.94281Z"/>
    <g id="_Group_" data-name="&lt;Group&gt;">
      <polygon id="_Path_" data-name="&lt;Path&gt;" class="cls-2" points="118.655 58.379 122.654 72.816 126.622 58.523 127.788 58.697 132.503 59.401 130.192 57.09 128.66 55.558 127.709 54.607 122.646 49.544 117.604 54.586 116.655 55.536 115.35 56.841 113.203 58.987 117.479 58.51 118.655 58.379"/>
      <polygon id="_Path_2" data-name="&lt;Path&gt;" class="cls-3" points="106.033 79.001 120.47 75.001 106.179 71.032 106.352 69.868 107.058 65.133 104.735 67.456 103.198 68.992 102.25 69.94 97.191 75 102.242 80.052 103.192 81.002 104.499 82.309 106.646 84.455 106.165 80.178 106.033 79.001"/>
      <polygon id="_Path_3" data-name="&lt;Path&gt;" class="cls-2" points="143.055 69.953 142.109 69.007 140.818 67.716 138.668 65.566 139.147 69.827 139.279 71 124.841 75.001 139.133 78.969 138.958 80.137 138.252 84.85 140.575 82.527 142.094 81.008 143.046 80.056 148.102 75 143.055 69.953"/>
      <polygon id="_Path_4" data-name="&lt;Path&gt;" class="cls-2" points="126.654 91.623 122.654 77.187 118.686 91.478 117.521 91.305 112.79 90.6 115.106 92.916 116.646 94.456 117.596 95.405 122.646 100.456 127.701 95.401 128.648 94.454 129.945 93.157 132.088 91.014 127.828 91.491 126.654 91.623"/>
    </g>
    <path class="cls-4" d="M83.96294,71.94281l-.10981.159a.64362.64362,0,0,0-.10976.449,11.31038,11.31038,0,0,1,.07532,2.23494,7.7012,7.7012,0,0,1-.49619,2.26164.24254.24254,0,0,0,.06909.2709.24392.24392,0,0,1,.06105.29033,6.57986,6.57986,0,0,1-.54537.953.73328.73328,0,0,1-.26358.22845L71.982,84.24906a.72768.72768,0,0,1-1.0349-.457,12.15246,12.15246,0,0,1,1.22423-8.80864.71911.71911,0,0,1,.57033-.3801l1.18878-.11188a3.90514,3.90514,0,0,0,1.25628-.33581l7.74832-3.54024a.72855.72855,0,0,1,1.01345.50233c.03119.13778.063.29006.09389.45454A.49218.49218,0,0,1,83.96294,71.94281Z"/>
  </g>
</svg>
