<?xml version="1.0" encoding="UTF-8" standalone="no"?>
<!-- Generator: Adobe Illustrator 19.0.0, SVG Export Plug-In . SVG Version: 6.00 Build 0)  -->

<svg
   xmlns:dc="http://purl.org/dc/elements/1.1/"
   xmlns:cc="http://creativecommons.org/ns#"
   xmlns:rdf="http://www.w3.org/1999/02/22-rdf-syntax-ns#"
   xmlns:svg="http://www.w3.org/2000/svg"
   xmlns="http://www.w3.org/2000/svg"
   xmlns:sodipodi="http://sodipodi.sourceforge.net/DTD/sodipodi-0.dtd"
   xmlns:inkscape="http://www.inkscape.org/namespaces/inkscape"
   version="1.1"
   id="Layer_1"
   x="0px"
   y="0px"
   viewBox="0 0 42 42"
   enable-background="new 0 0 400 400"
   xml:space="preserve"
   inkscape:version="0.48.4 r9939"
   width="100%"
   height="100%"
   sodipodi:docname="expandability-pillar-icon.svg"><metadata
     id="metadata23"><rdf:RDF><cc:Work
         rdf:about=""><dc:format>image/svg+xml</dc:format><dc:type
           rdf:resource="http://purl.org/dc/dcmitype/StillImage" /></cc:Work></rdf:RDF></metadata><defs
     id="defs21" /><sodipodi:namedview
     pagecolor="#ffffff"
     bordercolor="#666666"
     borderopacity="1"
     objecttolerance="10"
     gridtolerance="10"
     guidetolerance="10"
     inkscape:pageopacity="0"
     inkscape:pageshadow="2"
     inkscape:window-width="856"
     inkscape:window-height="688"
     id="namedview19"
     showgrid="false"
     inkscape:zoom="8"
     inkscape:cx="31.899125"
     inkscape:cy="17.646185"
     inkscape:window-x="838"
     inkscape:window-y="188"
     inkscape:window-maximized="0"
     inkscape:current-layer="Layer_1" /><g
     id="g3000"
     transform="matrix(0.10703364,0,0,0.10703364,-0.40672782,37.911315)"><polygon
       transform="translate(0,-358)"
       style="fill:#2ebef9"
       id="polygon3"
       points="270.8,317.1 233.6,321.3 200.3,201.3 200,200 166.3,320 128.6,314.4 199.7,396.2 200.3,395.4 " /><polygon
       transform="translate(0,-358)"
       style="fill:#fdcd4c"
       id="polygon5"
       points="129.2,82.9 166.4,78.7 200,200 200.3,198.8 233.7,80 271.4,85.6 200.3,3.8 200.3,3.8 " /><polygon
       transform="translate(0,-358)"
       style="fill:#9bc650"
       id="polygon7"
       points="85.6,128.6 3.8,199.7 4.2,200 82.9,270.8 78.7,233.6 200,200 80,166.3 " /><polygon
       transform="translate(0,-358)"
       style="fill:#ea1f56"
       id="polygon9"
       points="200.3,199.9 200.3,200 200.3,200.1 320,233.7 314.4,271.4 396.2,200.3 395.8,200 317.1,129.2 321.3,166.4 " /><polygon
       transform="translate(0,-358)"
       style="fill:#666666"
       id="polygon11"
       points="200,200 200.3,200 200.3,199.9 " /><polygon
       transform="translate(0,-358)"
       style="fill:#666666"
       id="polygon13"
       points="200.3,200.1 200.3,200 200,200 " /><polygon
       transform="translate(0,-358)"
       style="fill:#666666"
       id="polygon15"
       points="200.3,200.1 200,200 200.3,201.3 " /><polygon
       transform="translate(0,-358)"
       style="fill:#666666"
       id="polygon17"
       points="200,200 200.3,199.9 200.3,198.8 " /></g></svg>