<?xml version="1.0" encoding="utf-8"?>
<!-- Generator: Adobe Illustrator 19.0.0, SVG Export Plug-In . SVG Version: 6.00 Build 0)  -->
<svg version="1.0" id="Layer_1" xmlns="http://www.w3.org/2000/svg" xmlns:xlink="http://www.w3.org/1999/xlink" x="0px" y="0px"
	 viewBox="0 0 32 32" enable-background="new 0 0 32 32" xml:space="preserve">
<path id="XMLID_6_" fill="#FFFFFF" d="M29.5,11.3H26V3.8c0-1.7-1.4-3.1-3.1-3.1H3.1C1.4,0.8,0,2.1,0,3.8v13.7c0,1.7,1.4,3.1,3.1,3.1
	h0.8V26l6.9-5.4h0.9v5.1c0,1.4,1.1,2.5,2.5,2.5h9.7l5.3,4.2v-4.2h0.3c1.4,0,2.5-1.1,2.5-2.5V13.8C32,12.4,30.9,11.3,29.5,11.3z"/>
<linearGradient id="XMLID_4_" gradientUnits="userSpaceOnUse" x1="21.8" y1="29.1043" x2="21.8" y2="14.0264">
	<stop  offset="0" style="stop-color:#00C73F"/>
	<stop  offset="1" style="stop-color:#B3D721"/>
</linearGradient>
<path id="XMLID_2_" fill="url(#XMLID_4_)" d="M29.5,12.3H27v5.3c0,2.2-1.8,4-4,4H12.6v4.1c0,0.8,0.7,1.5,1.5,1.5h10.1l4,3.1v-3.1
	h1.3c0.8,0,1.5-0.7,1.5-1.5V13.8C31,13,30.3,12.3,29.5,12.3z"/>
<linearGradient id="XMLID_5_" gradientUnits="userSpaceOnUse" x1="13" y1="22.4504" x2="13" y2="3.91">
	<stop  offset="0" style="stop-color:#0072BC"/>
	<stop  offset="1" style="stop-color:#55A0D7"/>
</linearGradient>
<path id="XMLID_1_" fill="url(#XMLID_5_)" d="M22.9,1.8H3.1C1.9,1.8,1,2.7,1,3.8v13.7c0,1.1,0.9,2.1,2.1,2.1h1.8v4.3l5.5-4.3h12.5
	c1.1,0,2.1-0.9,2.1-2.1V3.8C25,2.7,24,1.8,22.9,1.8z"/>
<g opacity="0.2">
	<path d="M1.5,18V4.3c0-1.1,0.9-2,2.1-2h19.8c0.5,0,0.9,0.2,1.2,0.4c-0.4-0.6-1-0.9-1.7-0.9H3.1C1.9,1.8,1,2.7,1,3.8v13.7
		c0,0.7,0.4,1.3,0.9,1.7C1.7,18.9,1.5,18.4,1.5,18z"/>
	<polygon points="5.4,20.1 4.9,20.1 4.9,23.9 5.4,23.5 	"/>
	<path d="M13.1,26.2v-4.1h10.4c2.2,0,4-1.8,4-4v-5.3H30c0.3,0,0.5,0.1,0.8,0.2c-0.3-0.4-0.7-0.7-1.3-0.7H27v5.3c0,2.2-1.8,4-4,4
		H12.6v4.1c0,0.5,0.3,1,0.7,1.3C13.2,26.7,13.1,26.5,13.1,26.2z"/>
</g>
</svg>
