<svg id="layout" xmlns="http://www.w3.org/2000/svg" viewBox="0 0 150 150"><defs><style>.cls-2{fill:#fff}.cls-3{fill:#56a1d5}</style></defs><path d="M122.484 39.6a5.114 5.114 0 00-5.1-5.1H32.516a5.114 5.114 0 00-5.099 5.1v60.865a5.114 5.114 0 005.1 5.1h84.869a5.114 5.114 0 005.1-5.1v-51.03z" fill="#25477b"/><path class="cls-2" d="M29.966 49.434v51.031a2.556 2.556 0 002.55 2.55h84.869a2.552 2.552 0 002.55-2.55v-51.03z"/><circle class="cls-2" cx="34.052" cy="41.967" r="2.177"/><circle class="cls-2" cx="40.144" cy="41.967" r="2.177"/><circle class="cls-2" cx="46.237" cy="41.967" r="2.177"/><g id="_Group_" data-name="&lt;Group&gt;"><path id="_Path_" data-name="&lt;Path&gt;" class="cls-3" d="M71.903 63.075l3.053 11.022 3.029-10.911.89.133 3.6.537-1.764-1.764-1.17-1.17-.726-.726-3.865-3.865-3.849 3.85-.725.724-.996.997-1.639 1.638 3.264-.364.898-.101z"/><path id="_Path_2" data-name="&lt;Path&gt;" class="cls-3" d="M62.267 78.819l11.022-3.054-10.91-3.03.132-.889.539-3.614-1.774 1.773-1.172 1.173-.724.724-3.863 3.862 3.856 3.857.726.725.998.998 1.638 1.639-.367-3.266-.101-.898z"/><path id="_Path_3" data-name="&lt;Path&gt;" class="cls-3" d="M90.531 71.912l-.723-.723-.985-.985-1.642-1.642.366 3.253.1.896-11.021 3.054 10.91 3.03-.133.891-.539 3.598 1.773-1.773 1.16-1.16.726-.727 3.86-3.86-3.852-3.852z"/><path id="_Path_4" data-name="&lt;Path&gt;" class="cls-3" d="M78.01 88.454l-3.054-11.02-3.029 10.91-.889-.133-3.612-.538 1.768 1.768 1.176 1.176.725.725 3.855 3.855 3.859-3.858.723-.724.99-.99 1.636-1.635-3.252.364-.896.1z"/></g><path class="cls-3" d="M31.494 115.078l12.447-19.993a.894.894 0 00-.837-1.363l-23.462 2.039a.894.894 0 00-.5 1.573l5.753 4.867-11.454 7.027a3.096 3.096 0 00-1.02 4.258 3.096 3.096 0 004.258 1.02l11.454-7.028 1.732 7.333a.894.894 0 001.63.267z"/></svg>