<svg id="layout" xmlns="http://www.w3.org/2000/svg" viewBox="0 0 150 150"><defs><style>.cls-2{fill:#56a1d5}</style></defs><path d="M88.144 61.667a5.352 5.352 0 00.682-2.57 2.571 2.571 0 00-2.01-2.552l-11.96-1.417a174.303 174.303 0 00-23.304-2.465 27.637 27.637 0 00-8.11.662 3.76 3.76 0 01-.173.042L6.514 61.492c-2.15.595-2.605 1.556-2.605 1.556-1.31.892-1.625.98-1.853 4.004a126.538 126.538 0 00.533 18.655 4.39 4.39 0 002.164 3.671 63.16 63.16 0 0012.745 4.904 4.78 4.78 0 001.169.145 4.809 4.809 0 011.49.237 49.046 49.046 0 007.726 1.795 1.165 1.165 0 01.53.218 1.166 1.166 0 00.485.212 148.819 148.819 0 0015.236 1.842.428.428 0 01.265.116.428.428 0 00.294.117h3.07a2.697 2.697 0 00.41-.031 8.966 8.966 0 004.14-1.91l33.191-17.802c2.168-1.696 3.602-7.099 3.602-10.176a23.425 23.425 0 00-.962-7.378zM47.758 94.973a1.993 1.993 0 01-1.958 1.696c-1.801.14-23.918-1.609-40.807-8.882A2.361 2.361 0 013.56 85.48a120.55 120.55 0 01-.455-14.651c.05-2.704.144-4.253.194-4.92a1.254 1.254 0 01.878-1.111 1.991 1.991 0 01.686-.074.966.966 0 01.086.009l13.075 1.865a.575.575 0 00.23-.014l.22-.059a.575.575 0 01.245-.012l9.038 1.504a.575.575 0 01.325.174.576.576 0 00.315.172l17.086 3.179a.567.567 0 01.04.009 7.816 7.816 0 011.576.604 1.91 1.91 0 01.95 1.275 28.043 28.043 0 01.426 5.004 139.691 139.691 0 01-.717 16.539zM68.86 80.165a.962.962 0 01-.076.032l-1.844.688a.955.955 0 01-1.185-.45 2.34 2.34 0 01-.22-1.075 2.248 2.248 0 01.945-2.01l2.051-.635a.928.928 0 01.596.009c.293.108.622.4.622 1.168 0 1.139.068 1.818-.889 2.273zm15.103-8.222l-.11.159a.644.644 0 00-.11.449 11.31 11.31 0 01.076 2.235 7.701 7.701 0 01-.496 2.261.243.243 0 00.069.271.244.244 0 01.06.29 6.58 6.58 0 01-.545.954.733.733 0 01-.263.228l-10.662 5.46a.728.728 0 01-1.035-.458 12.152 12.152 0 011.224-8.809.72.72 0 01.57-.38l1.19-.112a3.905 3.905 0 001.256-.335l7.748-3.54a.729.729 0 011.013.502c.032.138.063.29.094.454a.492.492 0 01-.08.37z" fill-rule="evenodd" fill="#25477b"/><g id="_Group_" data-name="&lt;Group&gt;"><path id="_Path_" data-name="&lt;Path&gt;" class="cls-2" d="M118.655 58.379l3.999 14.437 3.968-14.293 1.166.174 4.715.704-2.311-2.311-1.532-1.532-.951-.951-5.063-5.063-5.042 5.042-.949.95-1.305 1.305-2.147 2.146 4.276-.477 1.176-.131z"/><path id="_Path_2" data-name="&lt;Path&gt;" fill="#25477b" d="M106.033 79.001l14.437-4-14.291-3.969.173-1.164.706-4.735-2.323 2.323-1.537 1.536-.948.948L97.191 75l5.051 5.052.95.95 1.307 1.307 2.147 2.146-.481-4.277-.132-1.177z"/><path id="_Path_3" data-name="&lt;Path&gt;" class="cls-2" d="M143.055 69.953l-.946-.946-1.291-1.291-2.15-2.15.479 4.261.132 1.173-14.438 4.001 14.292 3.968-.175 1.168-.706 4.713 2.323-2.323 1.519-1.519.952-.952L148.102 75l-5.047-5.047z"/><path id="_Path_4" data-name="&lt;Path&gt;" class="cls-2" d="M126.654 91.623l-4-14.436-3.968 14.291-1.165-.173-4.731-.705 2.316 2.316 1.54 1.54.95.949 5.05 5.051 5.055-5.055.947-.947 1.297-1.297 2.143-2.143-4.26.477-1.174.132z"/></g><path d="M83.963 71.943l-.11.159a.644.644 0 00-.11.449 11.31 11.31 0 01.076 2.235 7.701 7.701 0 01-.496 2.261.243.243 0 00.069.271.244.244 0 01.06.29 6.58 6.58 0 01-.545.954.733.733 0 01-.263.228l-10.662 5.46a.728.728 0 01-1.035-.458 12.152 12.152 0 011.224-8.809.72.72 0 01.57-.38l1.19-.112a3.905 3.905 0 001.256-.335l7.748-3.54a.729.729 0 011.013.502c.032.138.063.29.094.454a.492.492 0 01-.08.37z" fill="#56a1d5" fill-rule="evenodd"/></svg>