<svg xmlns="http://www.w3.org/2000/svg" version="1.1" id="Layer_1" x="0" y="0" viewBox="0 0 42 42" xml:space="preserve" width="100%" height="100%"><g id="g3000" transform="translate(-.407 37.911) scale(.10703)"><path transform="translate(0 -358)" id="polygon3" fill="#2ebef9" d="M270.8 317.1l-37.2 4.2-33.3-120-.3-1.3-33.7 120-37.7-5.6 71.1 81.8.6-.8z"/><path transform="translate(0 -358)" id="polygon5" fill="#fdcd4c" d="M129.2 82.9l37.2-4.2L200 200l.3-1.2L233.7 80l37.7 5.6-71.1-81.8z"/><path transform="translate(0 -358)" id="polygon7" fill="#9bc650" d="M85.6 128.6L3.8 199.7l.4.3 78.7 70.8-4.2-37.2L200 200 80 166.3z"/><path transform="translate(0 -358)" id="polygon9" fill="#ea1f56" d="M200.3 199.9v.2L320 233.7l-5.6 37.7 81.8-71.1-.4-.3-78.7-70.8 4.2 37.2z"/><path transform="translate(0 -358)" id="polygon11" fill="#666" d="M200 200h.3v-.1z"/><path transform="translate(0 -358)" id="polygon13" fill="#666" d="M200.3 200.1v-.1h-.3z"/><path transform="translate(0 -358)" id="polygon15" fill="#666" d="M200.3 200.1l-.3-.1.3 1.3z"/><path transform="translate(0 -358)" id="polygon17" fill="#666" d="M200 200l.3-.1v-1.1z"/></g></svg>