<svg width="290" height="41" viewBox="0 0 290 41" fill="none" xmlns="http://www.w3.org/2000/svg">
<path fill-rule="evenodd" clip-rule="evenodd" d="M60.6247 11.6113C60.918 11.0875 61.0743 10.4982 61.0794 9.89797C61.0859 9.50348 60.9562 9.11881 60.7121 8.80886C60.468 8.49891 60.1244 8.28267 59.7394 8.19664L51.766 7.25197C46.6301 6.3563 41.4397 5.80728 36.23 5.60863C34.4159 5.48818 32.5939 5.6369 30.8234 6.04997C30.7851 6.06021 30.7467 6.06955 30.708 6.07797L6.2047 11.4946C4.77137 11.8913 4.46803 12.532 4.46803 12.532C3.5947 13.1266 3.3847 13.1853 3.2327 15.2013C3.04486 19.35 3.16363 23.5068 3.58803 27.638C3.6009 28.1348 3.7401 28.6202 3.9925 29.0484C4.24491 29.4766 4.6022 29.8334 5.0307 30.0853C7.73644 31.479 10.5853 32.5751 13.5274 33.3546C13.7822 33.4189 14.0439 33.4513 14.3067 33.4513C14.6441 33.4514 14.9793 33.5047 15.3 33.6093C16.9818 34.1466 18.7043 34.5468 20.4507 34.806C20.5787 34.8242 20.7002 34.8742 20.804 34.9513C20.8995 35.0226 21.0102 35.0709 21.1274 35.0926C24.4898 35.6764 27.8801 36.0863 31.2847 36.3206C31.3508 36.3251 31.4132 36.3525 31.4614 36.398C31.5143 36.4481 31.5845 36.476 31.6574 36.476H33.704C33.7955 36.476 33.8869 36.4691 33.9774 36.4553C34.9917 36.2758 35.9425 35.8372 36.7374 35.182L58.8647 23.314C60.31 22.1833 61.266 18.5813 61.266 16.53C61.3157 14.8667 61.0992 13.2062 60.6247 11.6113ZM33.7007 33.8153C33.6535 34.1284 33.4961 34.4143 33.2568 34.6216C33.0175 34.8289 32.712 34.9439 32.3954 34.946C31.1947 35.0393 16.45 33.8733 5.1907 29.0246C4.89251 28.8978 4.64074 28.682 4.46976 28.4067C4.29878 28.1315 4.21692 27.8102 4.23537 27.4866C3.93622 24.24 3.83493 20.9782 3.93203 17.7193C3.96537 15.9166 4.02803 14.884 4.06137 14.4393C4.07295 14.2712 4.13503 14.1106 4.23948 13.9784C4.34393 13.8463 4.48587 13.7487 4.6467 13.6986C4.79511 13.6557 4.94988 13.639 5.10403 13.6493C5.12322 13.6504 5.14235 13.6524 5.16137 13.6553L13.878 14.8986C13.9292 14.9059 13.9814 14.9027 14.0314 14.8893L14.178 14.85C14.2313 14.8356 14.287 14.8329 14.3414 14.842L20.3667 15.8446C20.4497 15.8585 20.5258 15.8992 20.5834 15.9606C20.6394 16.0202 20.7129 16.0604 20.7934 16.0753L32.184 18.1946C32.193 18.1963 32.2019 18.1983 32.2107 18.2006C32.5744 18.2965 32.9267 18.4315 33.2614 18.6033C33.4218 18.6912 33.5614 18.8126 33.6707 18.9593C33.78 19.1059 33.8564 19.2744 33.8947 19.4533C34.0889 20.5546 34.184 21.671 34.1787 22.7893C34.2375 26.4709 34.0779 30.1527 33.7007 33.8153ZM47.7687 23.9433C47.7521 23.9511 47.7352 23.9583 47.718 23.9646L46.4887 24.4233C46.3431 24.4786 46.1823 24.4785 46.0367 24.4233C45.8912 24.368 45.7709 24.2613 45.6987 24.1233C45.5937 23.8994 45.5434 23.6538 45.552 23.4066C45.532 23.1478 45.5795 22.8883 45.69 22.6534C45.8004 22.4185 45.97 22.2163 46.182 22.0666L47.5494 21.6433C47.6789 21.6016 47.8185 21.6037 47.9467 21.6493C48.142 21.7213 48.3614 21.916 48.3614 22.428C48.3614 23.1873 48.4067 23.64 47.7687 23.9433ZM57.8374 18.462L57.764 18.568C57.7034 18.6552 57.6772 18.7619 57.6907 18.8673C57.7568 19.3611 57.7737 19.8602 57.7414 20.3573C57.7077 20.8735 57.5962 21.3817 57.4107 21.8646C57.3988 21.8958 57.3969 21.9299 57.4051 21.9622C57.4133 21.9946 57.4314 22.0236 57.4567 22.0453C57.4836 22.0687 57.5021 22.1003 57.5094 22.1352C57.5166 22.1701 57.5121 22.2065 57.4967 22.2386C57.3935 22.4604 57.272 22.6731 57.1334 22.8746C57.088 22.9386 57.0278 22.9908 56.958 23.0266L49.85 26.6666C49.7857 26.6996 49.7148 26.7178 49.6425 26.7199C49.5702 26.722 49.4983 26.7079 49.4322 26.6786C49.366 26.6493 49.3073 26.6056 49.2602 26.5508C49.2131 26.4959 49.1789 26.4311 49.16 26.3613C48.6802 24.371 48.9717 22.2728 49.976 20.4886C50.0133 20.4182 50.0676 20.3581 50.134 20.3139C50.2003 20.2696 50.2766 20.2426 50.356 20.2353L51.1494 20.1606C51.439 20.1335 51.722 20.058 51.9867 19.9373L57.152 17.5773C57.2177 17.5474 57.2892 17.5325 57.3614 17.5337C57.4336 17.5349 57.5046 17.5521 57.5692 17.5841C57.6339 17.6162 57.6906 17.6622 57.7353 17.7189C57.7799 17.7756 57.8114 17.8416 57.8274 17.912C57.8487 18.004 57.8694 18.1053 57.89 18.2146C57.8979 18.2572 57.8972 18.301 57.888 18.3433C57.8789 18.3856 57.8614 18.4257 57.8367 18.4613L57.8374 18.462Z" fill="#25477B"/>
<path d="M80.9655 9.41934L83.6315 19.044L86.2768 9.51533L87.0541 9.63133L90.1975 10.1007L88.6568 8.56L87.6355 7.53867L87.0015 6.90467L83.6261 3.52934L80.2648 6.89067L79.6321 7.524L78.7621 8.394L77.3308 9.82467L80.1815 9.50667L80.9655 9.41934Z" fill="#56A1D5"/>
<path d="M72.5508 23.1673L82.1755 20.5007L72.6481 17.8547L72.7635 17.0787L73.2341 13.922L71.6855 15.4707L70.6608 16.4947L70.0288 17.1267L66.6561 20.5L70.0235 23.868L70.6568 24.5013L71.5281 25.3727L72.9595 26.8033L72.6388 23.952L72.5508 23.1673Z" fill="#25477B"/>
<path d="M97.2321 17.1353L96.6015 16.5047L95.7408 15.644L94.3075 14.2107L94.6268 17.0513L94.7148 17.8333L85.0895 20.5007L94.6175 23.146L94.5008 23.9247L94.0301 27.0667L95.5788 25.518L96.5915 24.5053L97.2261 23.8707L100.597 20.5L97.2321 17.1353Z" fill="#56A1D5"/>
<path d="M86.2981 31.582L83.6315 21.958L80.9861 31.4853L80.2095 31.37L77.0555 30.9L78.5995 32.444L79.6261 33.4707L80.2595 34.1033L83.6261 37.4707L86.9961 34.1007L87.6275 33.4693L88.4921 32.6047L89.9208 31.176L87.0808 31.494L86.2981 31.582Z" fill="#56A1D5"/>
<path fill-rule="evenodd" clip-rule="evenodd" d="M57.8374 18.462L57.7641 18.568C57.7035 18.6552 57.6773 18.7619 57.6908 18.8673C57.7568 19.3611 57.7738 19.8602 57.7414 20.3573C57.7078 20.8735 57.5963 21.3817 57.4108 21.8646C57.3989 21.8958 57.397 21.9299 57.4052 21.9623C57.4134 21.9946 57.4314 22.0236 57.4568 22.0453C57.4837 22.0687 57.5022 22.1003 57.5095 22.1352C57.5167 22.1701 57.5122 22.2065 57.4968 22.2386C57.3936 22.4604 57.2721 22.6731 57.1334 22.8746C57.088 22.9386 57.0279 22.9908 56.9581 23.0266L49.8501 26.6666C49.7858 26.6996 49.7148 26.7178 49.6425 26.7199C49.5702 26.722 49.4984 26.7079 49.4323 26.6786C49.3661 26.6493 49.3074 26.6056 49.2603 26.5508C49.2132 26.4959 49.179 26.4311 49.1601 26.3613C48.6803 24.371 48.9718 22.2728 49.9761 20.4886C50.0134 20.4182 50.0677 20.3581 50.1341 20.3139C50.2004 20.2697 50.2767 20.2426 50.3561 20.2353L51.1494 20.1606C51.4391 20.1335 51.7221 20.058 51.9868 19.9373L57.1521 17.5773C57.2178 17.5474 57.2893 17.5325 57.3615 17.5337C57.4336 17.5349 57.5046 17.5521 57.5693 17.5841C57.634 17.6162 57.6907 17.6622 57.7353 17.7189C57.78 17.7757 57.8115 17.8416 57.8274 17.912C57.8488 18.004 57.8694 18.1053 57.8901 18.2146C57.8979 18.2572 57.8973 18.301 57.8881 18.3433C57.879 18.3856 57.8615 18.4257 57.8368 18.4613L57.8374 18.462Z" fill="#56A1D5"/>
<path d="M131.818 18.0234V22.0073H116.343V18.0234H131.818ZM117.585 5.85156V35H112.56V5.85156H117.585ZM135.682 5.85156V35H130.677V5.85156H135.682ZM153.4 30.6558V20.3257C153.4 19.5516 153.259 18.8843 152.979 18.3237C152.699 17.7632 152.272 17.3294 151.698 17.0225C151.137 16.7155 150.43 16.562 149.576 16.562C148.788 16.562 148.108 16.6955 147.534 16.9624C146.96 17.2293 146.513 17.5897 146.193 18.0435C145.872 18.4972 145.712 19.0111 145.712 19.585H140.907C140.907 18.7308 141.114 17.9033 141.528 17.1025C141.942 16.3018 142.542 15.5877 143.33 14.9604C144.117 14.3332 145.058 13.8394 146.152 13.479C147.247 13.1187 148.475 12.9385 149.836 12.9385C151.464 12.9385 152.906 13.2121 154.16 13.7593C155.428 14.3065 156.422 15.134 157.143 16.2417C157.877 17.3361 158.244 18.7108 158.244 20.3657V29.9951C158.244 30.9827 158.311 31.8703 158.444 32.6577C158.591 33.4318 158.798 34.1058 159.065 34.6797V35H154.12C153.893 34.4795 153.713 33.8188 153.58 33.0181C153.46 32.2039 153.4 31.4165 153.4 30.6558ZM154.1 21.8271L154.14 24.8101H150.677C149.783 24.8101 148.995 24.8968 148.315 25.0703C147.634 25.2305 147.067 25.4707 146.613 25.791C146.159 26.1113 145.819 26.4984 145.592 26.9521C145.365 27.4059 145.252 27.9198 145.252 28.4937C145.252 29.0675 145.385 29.5947 145.652 30.0752C145.919 30.5423 146.306 30.9093 146.813 31.1763C147.334 31.4432 147.961 31.5767 148.695 31.5767C149.683 31.5767 150.543 31.3765 151.277 30.9761C152.025 30.5623 152.612 30.0618 153.039 29.4746C153.466 28.874 153.693 28.3068 153.72 27.7729L155.281 29.915C155.121 30.4622 154.848 31.0495 154.461 31.6768C154.074 32.304 153.566 32.9046 152.939 33.4785C152.325 34.0391 151.584 34.4995 150.717 34.8599C149.863 35.2202 148.875 35.4004 147.754 35.4004C146.339 35.4004 145.078 35.1201 143.97 34.5596C142.863 33.9857 141.995 33.2183 141.368 32.2573C140.741 31.283 140.427 30.182 140.427 28.9541C140.427 27.8063 140.64 26.792 141.068 25.9111C141.508 25.0169 142.149 24.2695 142.989 23.6689C143.844 23.0684 144.885 22.6146 146.112 22.3076C147.34 21.9873 148.742 21.8271 150.317 21.8271H154.1ZM168.134 17.4629V35H163.309V13.3389H167.914L168.134 17.4629ZM174.76 13.1987L174.72 17.6831C174.427 17.6297 174.106 17.5897 173.759 17.563C173.426 17.5363 173.092 17.5229 172.758 17.5229C171.931 17.5229 171.204 17.6431 170.576 17.8833C169.949 18.1102 169.422 18.4438 168.995 18.8843C168.581 19.3114 168.261 19.8319 168.034 20.4458C167.807 21.0597 167.673 21.7471 167.633 22.5078L166.532 22.5879C166.532 21.2266 166.666 19.9653 166.933 18.8042C167.2 17.6431 167.6 16.6221 168.134 15.7412C168.681 14.8604 169.362 14.173 170.176 13.6792C171.003 13.1854 171.958 12.9385 173.039 12.9385C173.332 12.9385 173.646 12.9652 173.98 13.0186C174.327 13.0719 174.587 13.132 174.76 13.1987ZM190.596 30.5156V4.25H195.441V35H191.056L190.596 30.5156ZM176.502 24.4097V23.9893C176.502 22.3477 176.696 20.8529 177.083 19.5049C177.47 18.1436 178.03 16.9757 178.764 16.0015C179.498 15.0138 180.393 14.2598 181.447 13.7393C182.501 13.2054 183.689 12.9385 185.01 12.9385C186.318 12.9385 187.466 13.1921 188.454 13.6992C189.441 14.2064 190.282 14.9338 190.976 15.8813C191.67 16.8156 192.224 17.9367 192.638 19.2446C193.052 20.5392 193.345 21.9806 193.519 23.5688V24.9102C193.345 26.4583 193.052 27.873 192.638 29.1543C192.224 30.4355 191.67 31.5433 190.976 32.4775C190.282 33.4118 189.435 34.1325 188.434 34.6396C187.446 35.1468 186.292 35.4004 184.97 35.4004C183.662 35.4004 182.481 35.1268 181.427 34.5796C180.386 34.0324 179.498 33.265 178.764 32.2773C178.03 31.2897 177.47 30.1286 177.083 28.7939C176.696 27.446 176.502 25.9845 176.502 24.4097ZM181.327 23.9893V24.4097C181.327 25.3973 181.414 26.3182 181.587 27.1724C181.774 28.0265 182.061 28.7806 182.448 29.4346C182.835 30.0752 183.335 30.5824 183.949 30.9561C184.577 31.3164 185.324 31.4966 186.192 31.4966C187.286 31.4966 188.187 31.2563 188.894 30.7759C189.602 30.2954 190.155 29.6481 190.556 28.834C190.97 28.0065 191.25 27.0856 191.397 26.0713V22.4478C191.317 21.6603 191.15 20.9263 190.896 20.2456C190.656 19.5649 190.329 18.971 189.915 18.4639C189.501 17.9434 188.988 17.543 188.374 17.2627C187.773 16.9691 187.059 16.8223 186.232 16.8223C185.351 16.8223 184.603 17.0091 183.989 17.3828C183.375 17.7565 182.868 18.2703 182.468 18.9243C182.081 19.5783 181.794 20.339 181.607 21.2065C181.42 22.0741 181.327 23.0016 181.327 23.9893ZM206.371 30.1953L211.376 13.3389H214.459L213.618 18.3838L208.573 35H205.811L206.371 30.1953ZM203.428 13.3389L207.332 30.2754L207.652 35H204.569L198.704 13.3389H203.428ZM219.144 30.0752L222.927 13.3389H227.632L221.786 35H218.703L219.144 30.0752ZM214.98 13.3389L219.924 29.9951L220.545 35H217.782L212.677 18.3638L211.837 13.3389H214.98ZM243.127 30.6558V20.3257C243.127 19.5516 242.987 18.8843 242.707 18.3237C242.426 17.7632 241.999 17.3294 241.425 17.0225C240.865 16.7155 240.158 16.562 239.303 16.562C238.516 16.562 237.835 16.6955 237.261 16.9624C236.687 17.2293 236.24 17.5897 235.92 18.0435C235.6 18.4972 235.44 19.0111 235.44 19.585H230.635C230.635 18.7308 230.842 17.9033 231.255 17.1025C231.669 16.3018 232.27 15.5877 233.057 14.9604C233.845 14.3332 234.786 13.8394 235.88 13.479C236.974 13.1187 238.202 12.9385 239.564 12.9385C241.192 12.9385 242.633 13.2121 243.888 13.7593C245.156 14.3065 246.15 15.134 246.871 16.2417C247.605 17.3361 247.972 18.7108 247.972 20.3657V29.9951C247.972 30.9827 248.039 31.8703 248.172 32.6577C248.319 33.4318 248.526 34.1058 248.793 34.6797V35H243.848C243.621 34.4795 243.441 33.8188 243.307 33.0181C243.187 32.2039 243.127 31.4165 243.127 30.6558ZM243.828 21.8271L243.868 24.8101H240.404C239.51 24.8101 238.723 24.8968 238.042 25.0703C237.361 25.2305 236.794 25.4707 236.34 25.791C235.887 26.1113 235.546 26.4984 235.319 26.9521C235.093 27.4059 234.979 27.9198 234.979 28.4937C234.979 29.0675 235.113 29.5947 235.38 30.0752C235.646 30.5423 236.033 30.9093 236.541 31.1763C237.061 31.4432 237.688 31.5767 238.422 31.5767C239.41 31.5767 240.271 31.3765 241.005 30.9761C241.752 30.5623 242.34 30.0618 242.767 29.4746C243.194 28.874 243.421 28.3068 243.447 27.7729L245.009 29.915C244.849 30.4622 244.575 31.0495 244.188 31.6768C243.801 32.304 243.294 32.9046 242.667 33.4785C242.053 34.0391 241.312 34.4995 240.444 34.8599C239.59 35.2202 238.603 35.4004 237.482 35.4004C236.067 35.4004 234.806 35.1201 233.698 34.5596C232.59 33.9857 231.723 33.2183 231.095 32.2573C230.468 31.283 230.154 30.182 230.154 28.9541C230.154 27.8063 230.368 26.792 230.795 25.9111C231.235 25.0169 231.876 24.2695 232.717 23.6689C233.571 23.0684 234.612 22.6146 235.84 22.3076C237.068 21.9873 238.469 21.8271 240.044 21.8271H243.828ZM257.861 17.4629V35H253.037V13.3389H257.641L257.861 17.4629ZM264.488 13.1987L264.448 17.6831C264.154 17.6297 263.834 17.5897 263.487 17.563C263.153 17.5363 262.82 17.5229 262.486 17.5229C261.658 17.5229 260.931 17.6431 260.304 17.8833C259.677 18.1102 259.149 18.4438 258.722 18.8843C258.309 19.3114 257.988 19.8319 257.761 20.4458C257.534 21.0597 257.401 21.7471 257.361 22.5078L256.26 22.5879C256.26 21.2266 256.393 19.9653 256.66 18.8042C256.927 17.6431 257.328 16.6221 257.861 15.7412C258.409 14.8604 259.089 14.173 259.903 13.6792C260.731 13.1854 261.685 12.9385 262.766 12.9385C263.06 12.9385 263.373 12.9652 263.707 13.0186C264.054 13.0719 264.314 13.132 264.488 13.1987ZM276.66 35.4004C275.058 35.4004 273.61 35.1401 272.316 34.6196C271.034 34.0858 269.94 33.3451 269.032 32.3975C268.138 31.4499 267.451 30.3354 266.97 29.0542C266.49 27.7729 266.25 26.3916 266.25 24.9102V24.1094C266.25 22.4144 266.497 20.8796 266.99 19.5049C267.484 18.1302 268.172 16.9557 269.052 15.9814C269.933 14.9938 270.974 14.2397 272.175 13.7192C273.377 13.1987 274.678 12.9385 276.079 12.9385C277.627 12.9385 278.982 13.1987 280.143 13.7192C281.304 14.2397 282.265 14.9738 283.026 15.9214C283.8 16.8556 284.374 17.9701 284.748 19.2646C285.135 20.5592 285.328 21.9873 285.328 23.5488V25.6108H268.592V22.1475H280.564V21.7671C280.537 20.8996 280.363 20.0854 280.043 19.3247C279.736 18.564 279.262 17.95 278.622 17.4829C277.981 17.0158 277.127 16.7822 276.059 16.7822C275.258 16.7822 274.544 16.9557 273.917 17.3027C273.303 17.6364 272.789 18.1235 272.376 18.7642C271.962 19.4048 271.642 20.1789 271.415 21.0864C271.201 21.9806 271.094 22.9883 271.094 24.1094V24.9102C271.094 25.8577 271.221 26.7386 271.475 27.5527C271.742 28.3535 272.129 29.0542 272.636 29.6548C273.143 30.2554 273.757 30.7292 274.478 31.0762C275.198 31.4098 276.019 31.5767 276.94 31.5767C278.101 31.5767 279.136 31.3431 280.043 30.876C280.951 30.4089 281.738 29.7482 282.405 28.894L284.948 31.3564C284.481 32.0371 283.873 32.6911 283.126 33.3184C282.379 33.9323 281.464 34.4328 280.383 34.8198C279.316 35.2069 278.075 35.4004 276.66 35.4004Z" fill="#25477B"/>
</svg>
