<?xml version="1.0" encoding="utf-8"?>
<!-- Generator: Adobe Illustrator 19.1.0, SVG Export Plug-In . SVG Version: 6.00 Build 0)  -->
<svg version="1.1" baseProfile="tiny" id="Layer_1" xmlns="http://www.w3.org/2000/svg" xmlns:xlink="http://www.w3.org/1999/xlink"
	 x="0px" y="0px" viewBox="0 0 32 32" xml:space="preserve">
<path fill="#FFFFFF" d="M4.1,20C2.9,20,2,19.1,2,17.9V4.1C2,2.9,2.9,2,4.1,2h13.9C19.1,2,20,2.9,20,4.1v13.9c0,1.1-0.9,2.1-2.1,2.1
	H4.1z"/>
<linearGradient id="SVGID_1_" gradientUnits="userSpaceOnUse" x1="11" y1="19" x2="11" y2="3">
	<stop  offset="0" style="stop-color:#C71A3A"/>
	<stop  offset="1" style="stop-color:#ED1F45"/>
</linearGradient>
<path fill="url(#SVGID_1_)" d="M17.9,19H4.1C3.5,19,3,18.5,3,17.9V4.1C3,3.5,3.5,3,4.1,3h13.9C18.5,3,19,3.5,19,4.1v13.9
	C19,18.5,18.5,19,17.9,19z"/>
<path fill="#FFFFFF" d="M15.1,30c-1.1,0-2.1-0.9-2.1-2.1V13.6c0-1.1,0.9-2.1,2.1-2.1c0.4,0,0.7,0.1,1,0.3L28.8,19
	c0.7,0.4,1.1,1,1.1,1.8c0,0.8-0.4,1.4-1.1,1.8l-12.8,7.2C15.8,29.9,15.4,30,15.1,30L15.1,30z"/>
<linearGradient id="SVGID_2_" gradientUnits="userSpaceOnUse" x1="21.4471" y1="12.5068" x2="21.4471" y2="29">
	<stop  offset="0" style="stop-color:#3EB54A"/>
	<stop  offset="1" style="stop-color:#9ACA3C"/>
</linearGradient>
<path fill="url(#SVGID_2_)" d="M15.6,12.6c-0.7-0.4-1.6,0.1-1.6,0.9v7.2v7.2c0,0.8,0.9,1.3,1.6,0.9l12.8-7.2c0.7-0.4,0.7-1.4,0-1.9
	L15.6,12.6z"/>
</svg>
