<svg width="115" height="30" viewBox="0 0 115 30" fill="none" xmlns="http://www.w3.org/2000/svg">
<rect width="115" height="30" rx="15" fill="#BAF4E0"/>
<path d="M21.976 14.502H19.4399L19.4262 13.251H21.6411C22.0148 13.251 22.3315 13.1963 22.5913 13.0869C22.8556 12.973 23.0561 12.8112 23.1928 12.6016C23.3295 12.3874 23.3979 12.1299 23.3979 11.8291C23.3979 11.4964 23.3341 11.2253 23.2065 11.0156C23.0789 10.806 22.8829 10.6533 22.6186 10.5576C22.3588 10.4619 22.0262 10.4141 21.6206 10.4141H19.9594V19H18.2436V9.04688H21.6206C22.1674 9.04688 22.6551 9.09928 23.0835 9.2041C23.5164 9.30892 23.8833 9.47298 24.184 9.69629C24.4894 9.91504 24.7195 10.193 24.8745 10.5303C25.034 10.8675 25.1137 11.2686 25.1137 11.7334C25.1137 12.1436 25.0157 12.5195 24.8198 12.8613C24.6238 13.1986 24.3344 13.4743 23.9516 13.6885C23.5688 13.9027 23.0926 14.0303 22.5229 14.0713L21.976 14.502ZM21.9008 19H18.8999L19.6723 17.6396H21.9008C22.2882 17.6396 22.6118 17.5758 22.8715 17.4482C23.1313 17.3161 23.325 17.1361 23.4526 16.9082C23.5848 16.6758 23.6508 16.4046 23.6508 16.0947C23.6508 15.7712 23.5939 15.4909 23.4799 15.2539C23.366 15.0124 23.186 14.8278 22.9399 14.7002C22.6938 14.568 22.3725 14.502 21.976 14.502H20.0483L20.062 13.251H22.5708L22.9604 13.7227C23.5073 13.7409 23.9562 13.8617 24.3071 14.085C24.6626 14.3083 24.9269 14.5977 25.1001 14.9531C25.2732 15.3086 25.3598 15.6914 25.3598 16.1016C25.3598 16.735 25.2208 17.266 24.9428 17.6943C24.6694 18.1227 24.2752 18.4486 23.7602 18.6719C23.2452 18.8906 22.6254 19 21.9008 19ZM30.186 19.1367C29.6391 19.1367 29.1446 19.0479 28.7026 18.8701C28.2651 18.6878 27.8914 18.4349 27.5815 18.1113C27.2762 17.7878 27.0415 17.4072 26.8774 16.9697C26.7133 16.5322 26.6313 16.0605 26.6313 15.5547V15.2812C26.6313 14.7025 26.7156 14.1784 26.8842 13.709C27.0529 13.2396 27.2876 12.8385 27.5883 12.5059C27.8891 12.1686 28.2446 11.9111 28.6547 11.7334C29.0649 11.5557 29.5092 11.4668 29.9877 11.4668C30.5164 11.4668 30.979 11.5557 31.3754 11.7334C31.7719 11.9111 32.1001 12.1618 32.3598 12.4854C32.6241 12.8044 32.8201 13.1849 32.9477 13.627C33.0799 14.069 33.146 14.5566 33.146 15.0898V15.7939H27.4311V14.6113H31.519V14.4814C31.5099 14.1852 31.4506 13.9072 31.3413 13.6475C31.2364 13.3877 31.0747 13.1781 30.8559 13.0186C30.6372 12.859 30.3455 12.7793 29.9809 12.7793C29.7075 12.7793 29.4637 12.8385 29.2495 12.957C29.0398 13.071 28.8644 13.2373 28.7231 13.4561C28.5818 13.6748 28.4724 13.9391 28.395 14.249C28.3221 14.5544 28.2856 14.8984 28.2856 15.2812V15.5547C28.2856 15.8783 28.3289 16.179 28.4155 16.457C28.5066 16.7305 28.6388 16.9697 28.812 17.1748C28.9851 17.3799 29.1948 17.5417 29.4409 17.6602C29.687 17.7741 29.9672 17.8311 30.2817 17.8311C30.6782 17.8311 31.0314 17.7513 31.3413 17.5918C31.6512 17.4323 31.92 17.2067 32.1479 16.915L33.0161 17.7559C32.8566 17.9883 32.6492 18.2116 32.394 18.4258C32.1388 18.6354 31.8266 18.8063 31.4575 18.9385C31.0929 19.0706 30.6691 19.1367 30.186 19.1367ZM39.1684 11.6035H40.6655V18.7949C40.6655 19.4603 40.5242 20.0254 40.2417 20.4902C39.9591 20.9551 39.5649 21.3083 39.059 21.5498C38.5532 21.7959 37.9676 21.9189 37.3022 21.9189C37.0196 21.9189 36.7052 21.8779 36.3588 21.7959C36.017 21.7139 35.6844 21.5817 35.3608 21.3994C35.0418 21.2217 34.7752 20.987 34.561 20.6953L35.3335 19.7246C35.5978 20.0391 35.8894 20.2692 36.2085 20.415C36.5275 20.5609 36.8624 20.6338 37.2133 20.6338C37.5916 20.6338 37.9129 20.5632 38.1772 20.4219C38.4461 20.2852 38.6534 20.0824 38.7993 19.8135C38.9451 19.5446 39.018 19.2165 39.018 18.8291V13.2783L39.1684 11.6035ZM34.144 15.3838V15.2402C34.144 14.6797 34.2124 14.1693 34.3491 13.709C34.4858 13.2441 34.6818 12.8454 34.937 12.5127C35.1922 12.1755 35.5021 11.918 35.8667 11.7402C36.2312 11.5579 36.6437 11.4668 37.104 11.4668C37.5825 11.4668 37.9904 11.5534 38.3276 11.7266C38.6694 11.8997 38.9542 12.1481 39.1821 12.4717C39.4099 12.7907 39.5877 13.1735 39.7153 13.6201C39.8474 14.0622 39.9454 14.5544 40.0092 15.0967V15.5547C39.95 16.0833 39.8497 16.5664 39.7085 17.0039C39.5672 17.4414 39.3803 17.8197 39.1479 18.1387C38.9155 18.4577 38.6284 18.7038 38.2866 18.877C37.9493 19.0501 37.5506 19.1367 37.0903 19.1367C36.6391 19.1367 36.2312 19.0433 35.8667 18.8564C35.5066 18.6696 35.1967 18.4076 34.937 18.0703C34.6818 17.7331 34.4858 17.3366 34.3491 16.8809C34.2124 16.4206 34.144 15.9215 34.144 15.3838ZM35.7915 15.2402V15.3838C35.7915 15.721 35.8234 16.0355 35.8872 16.3271C35.9555 16.6188 36.0581 16.8763 36.1948 17.0996C36.3361 17.3184 36.5138 17.4915 36.728 17.6191C36.9467 17.7422 37.2042 17.8037 37.5004 17.8037C37.8878 17.8037 38.2045 17.7217 38.4506 17.5576C38.7013 17.3936 38.8927 17.1725 39.0249 16.8945C39.1616 16.612 39.2573 16.2975 39.312 15.9512V14.7139C39.2846 14.445 39.2277 14.1943 39.1411 13.9619C39.059 13.7295 38.9474 13.5267 38.8061 13.3535C38.6648 13.1758 38.4871 13.0391 38.2729 12.9434C38.0587 12.8431 37.8058 12.793 37.5141 12.793C37.2179 12.793 36.9604 12.8568 36.7417 12.9844C36.5229 13.112 36.3429 13.2874 36.2016 13.5107C36.0649 13.734 35.9624 13.9938 35.894 14.29C35.8256 14.5863 35.7915 14.903 35.7915 15.2402ZM44.1381 11.6035V19H42.4838V11.6035H44.1381ZM42.3745 9.66211C42.3745 9.41146 42.4565 9.2041 42.6206 9.04004C42.7892 8.87142 43.0216 8.78711 43.3178 8.78711C43.6095 8.78711 43.8396 8.87142 44.0083 9.04004C44.1769 9.2041 44.2612 9.41146 44.2612 9.66211C44.2612 9.9082 44.1769 10.1133 44.0083 10.2773C43.8396 10.4414 43.6095 10.5234 43.3178 10.5234C43.0216 10.5234 42.7892 10.4414 42.6206 10.2773C42.4565 10.1133 42.3745 9.9082 42.3745 9.66211ZM47.5766 13.1826V19H45.9292V11.6035H47.4809L47.5766 13.1826ZM47.2827 15.0283L46.7495 15.0215C46.754 14.4974 46.8269 14.0166 46.9682 13.5791C47.114 13.1416 47.3146 12.7656 47.5698 12.4512C47.8295 12.1367 48.1394 11.8952 48.4995 11.7266C48.8595 11.5534 49.2605 11.4668 49.7026 11.4668C50.0581 11.4668 50.3793 11.5169 50.6665 11.6172C50.9581 11.7129 51.2065 11.8701 51.4116 12.0889C51.6212 12.3076 51.7807 12.5924 51.8901 12.9434C51.9995 13.2897 52.0542 13.7158 52.0542 14.2217V19H50.3999V14.2148C50.3999 13.8594 50.3474 13.5791 50.2426 13.374C50.1424 13.1644 49.9943 13.0163 49.7983 12.9297C49.6069 12.8385 49.3676 12.793 49.0805 12.793C48.798 12.793 48.545 12.8522 48.3217 12.9707C48.0984 13.0892 47.9093 13.251 47.7543 13.4561C47.604 13.6611 47.4877 13.8981 47.4057 14.167C47.3237 14.4359 47.2827 14.723 47.2827 15.0283ZM55.3696 13.1826V19H53.7221V11.6035H55.2739L55.3696 13.1826ZM55.0756 15.0283L54.5424 15.0215C54.547 14.4974 54.6199 14.0166 54.7612 13.5791C54.907 13.1416 55.1075 12.7656 55.3627 12.4512C55.6225 12.1367 55.9324 11.8952 56.2924 11.7266C56.6525 11.5534 57.0535 11.4668 57.4956 11.4668C57.851 11.4668 58.1723 11.5169 58.4594 11.6172C58.7511 11.7129 58.9995 11.8701 59.2045 12.0889C59.4142 12.3076 59.5737 12.5924 59.6831 12.9434C59.7924 13.2897 59.8471 13.7158 59.8471 14.2217V19H58.1928V14.2148C58.1928 13.8594 58.1404 13.5791 58.0356 13.374C57.9353 13.1644 57.7872 13.0163 57.5913 12.9297C57.3999 12.8385 57.1606 12.793 56.8735 12.793C56.5909 12.793 56.338 12.8522 56.1147 12.9707C55.8914 13.0892 55.7023 13.251 55.5473 13.4561C55.3969 13.6611 55.2807 13.8981 55.1987 14.167C55.1167 14.4359 55.0756 14.723 55.0756 15.0283ZM64.7895 19.1367C64.2426 19.1367 63.7482 19.0479 63.3061 18.8701C62.8686 18.6878 62.4949 18.4349 62.185 18.1113C61.8797 17.7878 61.645 17.4072 61.4809 16.9697C61.3168 16.5322 61.2348 16.0605 61.2348 15.5547V15.2812C61.2348 14.7025 61.3191 14.1784 61.4877 13.709C61.6564 13.2396 61.8911 12.8385 62.1918 12.5059C62.4926 12.1686 62.8481 11.9111 63.2583 11.7334C63.6684 11.5557 64.1127 11.4668 64.5913 11.4668C65.1199 11.4668 65.5825 11.5557 65.979 11.7334C66.3754 11.9111 66.7036 12.1618 66.9633 12.4854C67.2277 12.8044 67.4236 13.1849 67.5512 13.627C67.6834 14.069 67.7495 14.5566 67.7495 15.0898V15.7939H62.0346V14.6113H66.1225V14.4814C66.1134 14.1852 66.0542 13.9072 65.9448 13.6475C65.84 13.3877 65.6782 13.1781 65.4594 13.0186C65.2407 12.859 64.949 12.7793 64.5844 12.7793C64.311 12.7793 64.0672 12.8385 63.853 12.957C63.6433 13.071 63.4679 13.2373 63.3266 13.4561C63.1853 13.6748 63.076 13.9391 62.9985 14.249C62.9256 14.5544 62.8891 14.8984 62.8891 15.2812V15.5547C62.8891 15.8783 62.9324 16.179 63.019 16.457C63.1101 16.7305 63.2423 16.9697 63.4155 17.1748C63.5887 17.3799 63.7983 17.5417 64.0444 17.6602C64.2905 17.7741 64.5708 17.8311 64.8852 17.8311C65.2817 17.8311 65.6349 17.7513 65.9448 17.5918C66.2547 17.4323 66.5236 17.2067 66.7514 16.915L67.6196 17.7559C67.4601 17.9883 67.2527 18.2116 66.9975 18.4258C66.7423 18.6354 66.4301 18.8063 66.061 18.9385C65.6964 19.0706 65.2726 19.1367 64.7895 19.1367ZM70.6889 13.0117V19H69.0415V11.6035H70.6137L70.6889 13.0117ZM72.9516 11.5557L72.9379 13.0869C72.8377 13.0687 72.7283 13.055 72.6098 13.0459C72.4959 13.0368 72.382 13.0322 72.268 13.0322C71.9855 13.0322 71.7371 13.0732 71.5229 13.1553C71.3087 13.2327 71.1287 13.3467 70.9829 13.4971C70.8416 13.6429 70.7322 13.8206 70.6547 14.0303C70.5773 14.2399 70.5317 14.4746 70.518 14.7344L70.142 14.7617C70.142 14.2969 70.1876 13.8662 70.2788 13.4697C70.3699 13.0732 70.5066 12.7246 70.6889 12.4238C70.8758 12.123 71.1082 11.8883 71.3862 11.7197C71.6687 11.5511 71.9946 11.4668 72.3637 11.4668C72.464 11.4668 72.5711 11.4759 72.685 11.4941C72.8035 11.5124 72.8924 11.5329 72.9516 11.5557Z" fill="#007E62"/>
<rect x="88.8636" y="16.4" width="2.03991" height="4" rx="1.01996" fill="#007E62"/>
<rect x="97.0233" y="8.39999" width="2.03991" height="12" rx="1.01996" fill="#28600D" fill-opacity="0.25"/>
<rect x="92.9435" y="12.3999" width="2.03991" height="8" rx="1.01996" fill="#28600D" fill-opacity="0.25"/>
</svg>
