<svg width="290" height="40" viewBox="0 0 290 40" fill="none" xmlns="http://www.w3.org/2000/svg">
<g clip-path="url(#clip0_541_406)">
<path d="M34.1226 0.774426H40.5332V3.72782C41.6294 2.51447 42.8476 1.60854 44.188 1.01003C45.5284 0.411528 46.9887 0.111985 48.5689 0.111401C50.1643 0.111401 51.6053 0.505537 52.892 1.29381C54.1787 2.08208 55.213 3.23267 55.9947 4.74557C57.0116 3.23296 58.2602 2.08238 59.7404 1.29381C61.2206 0.505245 62.8385 0.111109 64.5943 0.111401C66.4101 0.111401 68.0071 0.536922 69.3855 1.38797C70.7639 2.23901 71.755 3.34989 72.3589 4.72061C72.964 6.09279 73.2658 8.32214 73.2644 11.4087V26.4861H66.8054V13.4407C66.8054 10.5276 66.4456 8.55483 65.726 7.52248C65.0063 6.49014 63.9261 5.97382 62.4854 5.97353C61.3916 5.97353 60.4096 6.28854 59.5394 6.91858C58.6692 7.54861 58.0238 8.41892 57.6032 9.52951C57.182 10.6389 56.9709 12.4234 56.9697 14.8828V26.4879H50.5121V14.0319C50.5121 11.731 50.3433 10.065 50.0056 9.03378C49.668 8.0026 49.1621 7.23432 48.488 6.72895C47.8119 6.22446 46.9955 5.97265 46.0389 5.97353C44.9938 5.96739 43.975 6.30355 43.1364 6.93128C42.2662 7.56861 41.6151 8.46272 41.1832 9.6136C40.7513 10.7645 40.5354 12.576 40.5354 15.0483V26.4861H34.1226V0.774426Z" fill="#0078D3"/>
<path d="M95.0098 0.775173L87.6863 16.9072L81.0516 0.775173H74.4995L84.2117 24.5688L78.9592 35.8932H85.5787L101.578 0.775173H95.0098Z" fill="#0078D3"/>
<path d="M115.897 0.775169H109.808L95.9021 26.3665L95.8398 26.4816H100.542L103.457 21.0719H122.554L125.497 26.4816H130.145L115.917 0.815021L115.897 0.775169ZM121.221 18.7434H104.762L112.937 3.37209L121.221 18.7434Z" fill="#003B71"/>
<path d="M161.907 3.20787C159.976 1.59366 156.251 0.775169 150.834 0.775169H133.207V26.4816H151.916C157.042 26.4816 160.513 25.5348 162.233 23.6675C163.952 21.8002 164.822 18.0497 164.822 12.5147C164.823 7.95678 163.842 4.82558 161.907 3.20787ZM137.639 3.36421H150.779C155.05 3.36421 157.784 3.97731 158.901 5.19213C160.017 6.40694 160.587 9.35552 160.587 13.956C160.587 18.1439 159.933 20.8753 158.641 22.0791C157.349 23.283 154.413 23.893 149.919 23.893H137.639V3.36421Z" fill="#003B71"/>
<path d="M192.128 17.3591L190.487 20.0222C190.36 20.267 190.1 20.7124 189.712 21.3478L188.957 22.641H188.934L188.178 21.3491L185.76 17.342L175.655 0.811955L175.632 0.775169H168.096V26.4816H172.526V4.5545L172.475 3.26436C172.565 3.43872 172.663 3.60828 172.77 3.77236L173.106 4.37495L173.855 5.55386L186.796 26.4431L186.818 26.4799H191.18L204.117 5.31081L204.838 4.11657C204.894 4.02899 205.004 3.83761 205.174 3.53237L205.47 3.00029L205.418 4.43013V26.4816H209.848V0.775169H202.203L192.128 17.3591Z" fill="#003B71"/>
<path d="M218.812 0.775169H214.382V26.4816H218.812V0.775169Z" fill="#003B71"/>
<path d="M251.446 0.775169V22.1571L251.5 24.0016L249.747 22.0275L247.943 20.0436L244.333 16.0375L230.477 0.800569L230.453 0.775169H223.345V26.4816H227.775V5.2311L227.722 3.38567L232.834 9.06649L248.741 26.4816H255.877V0.775169H251.446Z" fill="#003B71"/>
</g>
<defs>
<clipPath id="clip0_541_406">
<rect width="222" height="36" fill="white" transform="translate(34)"/>
</clipPath>
</defs>
</svg>
