<svg width="290" height="41" viewBox="0 0 290 41" fill="none" xmlns="http://www.w3.org/2000/svg">
<g clip-path="url(#clip0_531_13653)">
<path d="M34.1223 1.27442H40.533V4.22782C41.6291 3.01446 42.8474 2.10853 44.1878 1.51003C45.5282 0.911525 46.9885 0.611981 48.5687 0.611397C50.1641 0.611397 51.6051 1.00553 52.8918 1.79381C54.1785 2.58208 55.2127 3.73267 55.9945 5.24557C57.0114 3.73296 58.26 2.58237 59.7402 1.79381C61.2204 1.00524 62.8383 0.611105 64.5941 0.611397C66.4099 0.611397 68.0069 1.03692 69.3853 1.88796C70.7637 2.739 71.7548 3.84989 72.3587 5.2206C72.9638 6.59278 73.2656 8.82214 73.2642 11.9087V26.9861H66.8052V13.9407C66.8052 11.0276 66.4454 9.05482 65.7257 8.02248C65.0061 6.99013 63.9259 6.47381 62.4852 6.47352C61.3913 6.47352 60.4093 6.78854 59.5392 7.41857C58.669 8.04861 58.0236 8.91892 57.603 10.0295C57.1818 11.1389 56.9707 12.9233 56.9695 15.3828V26.9879H50.5119V14.5319C50.5119 12.231 50.343 10.565 50.0054 9.53377C49.6678 8.50259 49.1619 7.73432 48.4878 7.22895C47.8117 6.72445 46.9953 6.47265 46.0387 6.47352C44.9936 6.46739 43.9748 6.80354 43.1362 7.43127C42.266 8.06861 41.6149 8.96271 41.183 10.1136C40.7511 11.2645 40.5352 13.076 40.5352 15.5483V26.9861H34.1223V1.27442Z" fill="#0078D3"/>
<path d="M95.0096 1.27517L87.6861 17.4072L81.0514 1.27517H74.4993L84.2115 25.0688L78.959 36.3932H85.5785L101.578 1.27517H95.0096Z" fill="#0078D3"/>
<path d="M115.897 1.27517H109.808L95.902 26.8665L95.8398 26.9816H100.542L103.457 21.5719H122.554L125.497 26.9816H130.145L115.917 1.31502L115.897 1.27517ZM121.22 19.2434H104.762L112.937 3.87209L121.22 19.2434Z" fill="#003B71"/>
<path d="M161.907 3.70787C159.976 2.09366 156.251 1.27517 150.833 1.27517H133.207V26.9816H151.916C157.042 26.9816 160.513 26.0348 162.233 24.1675C163.952 22.3002 164.822 18.5497 164.822 13.0147C164.822 8.45678 163.841 5.32558 161.907 3.70787ZM137.639 3.86421H150.779C155.05 3.86421 157.784 4.47731 158.9 5.69213C160.017 6.90694 160.587 9.85552 160.587 14.456C160.587 18.6439 159.932 21.3753 158.641 22.5791C157.349 23.783 154.412 24.393 149.918 24.393H137.639V3.86421Z" fill="#003B71"/>
<path d="M192.128 17.8591L190.487 20.5222C190.36 20.767 190.1 21.2124 189.711 21.8478L188.957 23.141H188.934L188.178 21.8491L185.76 17.842L175.655 1.31196L175.632 1.27517H168.096V26.9816H172.526V5.0545L172.475 3.76436C172.565 3.93872 172.663 4.10828 172.77 4.27236L173.106 4.87495L173.855 6.05386L186.795 26.9431L186.818 26.9799H191.18L204.117 5.81081L204.838 4.61657C204.894 4.52899 205.004 4.33761 205.174 4.03237L205.47 3.50029L205.418 4.93013V26.9816H209.848V1.27517H202.203L192.128 17.8591Z" fill="#003B71"/>
<path d="M218.812 1.27517H214.382V26.9816H218.812V1.27517Z" fill="#003B71"/>
<path d="M251.446 1.27517V22.6571L251.499 24.5016L249.747 22.5275L247.943 20.5436L244.333 16.5375L230.477 1.30057L230.453 1.27517H223.345V26.9816H227.775V5.7311L227.722 3.88567L232.834 9.56649L248.741 26.9816H255.877V1.27517H251.446Z" fill="#003B71"/>
</g>
<defs>
<clipPath id="clip0_531_13653">
<rect width="222" height="36" fill="white" transform="translate(34 0.5)"/>
</clipPath>
</defs>
</svg>
