<svg width="290" height="44" viewBox="0 0 290 44" fill="none" xmlns="http://www.w3.org/2000/svg">
<path d="M113.318 18.0078H95.1724V20.781H108.53C108.684 21.6031 108.762 22.1412 108.762 22.3799C108.762 25.4999 108.169 27.451 107.002 28.1786C105.823 28.915 102.678 29.2877 97.6549 29.2877C91.0784 29.2877 86.9794 28.8935 85.4728 28.1152C83.9829 27.3468 83.228 25.2357 83.228 21.8384L83.1975 17.9334L83.2587 14.3059C83.2587 10.9603 83.9385 8.84427 85.2787 8.01613C86.6316 7.18011 90.0717 6.75617 95.5032 6.75617C101.388 6.75617 105.076 7.02098 106.464 7.54209C107.826 8.05409 108.516 9.41974 108.516 11.6008V12.366H113.327V11.24C113.327 8.18498 112.265 6.18707 110.17 5.30185C108.098 4.42665 103.442 3.98267 96.3327 3.98267C89.2392 3.98267 84.4516 4.66048 82.102 5.99697C79.7382 7.34318 78.5396 10.0842 78.5396 14.1438L78.5089 16.5696L78.5396 20.5967C78.5396 25.4261 79.6177 28.5807 81.7442 29.9737C83.8594 31.3581 88.6741 32.0606 96.0561 32.0606C103.865 32.0606 108.768 31.4672 110.628 30.2953C112.5 29.1155 113.45 26.0137 113.45 21.0777C113.45 19.8025 113.408 18.7949 113.326 18.0825L113.318 18.0078Z" fill="#25477B"/>
<path d="M117.943 31.7804H145.075V29.0072H122.847V18.9578H144.153V16.1849H122.847V7.03687H145.075V4.26367H117.943V31.7804Z" fill="#25477B"/>
<path d="M181.576 6.26421C179.582 4.75067 174.558 3.98267 166.644 3.98267C159.797 3.98267 155.05 4.65653 152.54 5.98604C150.011 7.32526 148.729 9.85461 148.729 13.5018L148.667 16.0885V18.0117C148.667 24.3009 149.655 28.2603 151.604 29.7787C153.548 31.2925 158.608 32.0606 166.644 32.0606C174.722 32.0606 179.788 31.2865 181.701 29.7581C183.619 28.226 184.591 24.1524 184.591 17.6513C184.591 11.6147 183.577 7.78382 181.576 6.26421ZM155.016 8.1783C156.123 7.23477 160.024 6.75587 166.614 6.75587C172.352 6.75587 176.042 7.16401 177.581 7.96876C179.102 8.7644 179.872 10.6736 179.872 13.6451L179.903 16.2285V18.012C179.903 23.6101 179.344 26.9253 178.242 27.8655C177.136 28.8097 173.223 29.2877 166.614 29.2877C160.024 29.2877 156.123 28.81 155.016 27.8655C153.914 26.925 153.355 23.6098 153.355 18.012C153.355 12.4271 153.914 9.11849 155.016 8.1783Z" fill="#25477B"/>
<path d="M218.645 4.26367H186.502V7.29712H200.184V31.7804H205.087V7.29712H218.645V4.26367Z" fill="#25477B"/>
<path d="M235.967 4.26367H229.228L213.761 31.7804H218.966L222.193 25.9904H243.339L246.598 31.7804H251.743L235.991 4.30619L235.967 4.26367ZM241.862 23.4978H223.639L232.69 7.04598L241.862 23.4978Z" fill="#25477B"/>
<path d="M282.079 17.3516C285.52 16.5089 287.263 14.5684 287.263 11.5808C287.263 8.5841 286.447 6.59075 284.839 5.65754C283.243 4.73253 279.832 4.26395 274.697 4.26395H256.042V31.7806H276.695C281.037 31.7806 284.13 31.1827 285.889 30.0029C287.657 28.8167 288.555 26.7374 288.555 23.8227C288.555 20.2718 286.376 18.0956 282.079 17.3516ZM280.914 15.3732C279.793 15.9784 277.236 16.2848 273.313 16.2848H260.946V7.03685H274.604C277.956 7.03685 280.151 7.30652 281.128 7.83796C282.088 8.36089 282.574 9.53886 282.574 11.3406C282.575 13.4211 282.017 14.7779 280.914 15.3732ZM260.946 19.0577H273.067C278.031 19.0577 281.111 19.335 282.223 19.8807C283.313 20.4176 283.867 21.9053 283.867 24.3028C283.867 26.2239 283.318 27.4976 282.235 28.0858C281.136 28.6843 278.765 28.988 275.189 28.988L270.915 29.0071H260.946V19.0577Z" fill="#25477B"/>
<path d="M3.3801 4.25173H10.306V7.41667C11.4904 6.11692 12.808 5.14667 14.2537 4.50499C15.7022 3.86393 17.2791 3.54294 18.9899 3.54294C20.7153 3.54294 22.273 3.96536 23.6603 4.80867C25.0492 5.6526 26.1659 6.88523 27.0131 8.50536C28.1132 6.88523 29.4621 5.6526 31.0625 4.80867C32.6628 3.96536 34.4098 3.54294 36.3059 3.54294C38.2677 3.54294 39.9953 3.99846 41.4836 4.9101C42.9744 5.82175 44.0443 7.01156 44.6973 8.48046C45.3492 9.94875 45.6741 12.3372 45.6741 15.6455V31.7985H38.6968V17.8232C38.6968 14.7004 38.3079 12.5859 37.5298 11.4808C36.752 10.3748 35.5847 9.82242 34.0285 9.82242C32.8448 9.82242 31.7837 10.1598 30.8443 10.8346C29.9061 11.51 29.2081 12.4423 28.7513 13.6324C28.2948 14.8225 28.0666 16.7339 28.0666 19.3668V31.7982H21.0893V18.456C21.0893 15.9917 20.9079 14.2066 20.5418 13.1012C20.1779 11.9952 19.6304 11.1726 18.9032 10.6323C18.1737 10.0918 17.2928 9.82242 16.2579 9.82242C15.1039 9.82242 14.0568 10.1641 13.1166 10.8476C12.175 11.5315 11.4715 12.4887 11.0062 13.7214C10.5388 14.9534 10.306 16.8945 10.306 19.545V31.7985H3.3801V4.25173Z" fill="#0078D3"/>
<path d="M47.0086 4.25176H54.0867L61.257 21.5363L69.1701 4.25176H76.2679L58.9796 41.8764H51.827L57.5013 29.7444L47.0086 4.25176Z" fill="#0078D3"/>
</svg>
