<svg width="290" height="40" viewBox="0 0 290 40" fill="none" xmlns="http://www.w3.org/2000/svg">
<path fill-rule="evenodd" clip-rule="evenodd" d="M60.6248 11.1113C60.9181 10.5875 61.0745 9.99823 61.0795 9.39796C61.0861 9.00348 60.9563 8.6188 60.7122 8.30885C60.4681 7.9989 60.1245 7.78266 59.7395 7.69663L51.7662 6.75196C46.6302 5.85629 41.4398 5.30727 36.2302 5.10863C34.416 4.98817 32.5941 5.1369 30.8235 5.54996C30.7853 5.5602 30.7468 5.56954 30.7082 5.57796L6.20482 10.9946C4.77149 11.3913 4.46815 12.032 4.46815 12.032C3.59482 12.6266 3.38482 12.6853 3.23282 14.7013C3.04498 18.8499 3.16375 23.0068 3.58815 27.138C3.60102 27.6348 3.74022 28.1202 3.99262 28.5484C4.24503 28.9766 4.60232 29.3334 5.03082 29.5853C7.73656 30.9789 10.5854 32.0751 13.5275 32.8546C13.7823 32.9189 14.0441 32.9513 14.3068 32.9513C14.6442 32.9514 14.9794 33.0047 15.3002 33.1093C16.9819 33.6466 18.7044 34.0468 20.4508 34.306C20.5789 34.3242 20.7003 34.3742 20.8042 34.4513C20.8997 34.5226 21.0103 34.5709 21.1275 34.5926C24.4899 35.1764 27.8802 35.5863 31.2848 35.8206C31.3509 35.8251 31.4134 35.8525 31.4615 35.898C31.5145 35.948 31.5846 35.976 31.6575 35.976H33.7042C33.7957 35.976 33.887 35.9691 33.9775 35.9553C34.9918 35.7758 35.9426 35.3371 36.7375 34.682L58.8648 22.814C60.3101 21.6833 61.2662 18.0813 61.2662 16.03C61.3158 14.3667 61.0993 12.7062 60.6248 11.1113ZM33.7008 33.3153C33.6536 33.6284 33.4962 33.9143 33.2569 34.1216C33.0176 34.3289 32.7121 34.4439 32.3955 34.446C31.1948 34.5393 16.4502 33.3733 5.19082 28.5246C4.89263 28.3978 4.64086 28.182 4.46988 27.9067C4.2989 27.6315 4.21704 27.3102 4.23549 26.9866C3.93635 23.74 3.83505 20.4782 3.93215 17.2193C3.96549 15.4166 4.02815 14.384 4.06149 13.9393C4.07307 13.7712 4.13516 13.6106 4.2396 13.4784C4.34405 13.3463 4.48599 13.2487 4.64682 13.1986C4.79523 13.1557 4.95 13.139 5.10415 13.1493C5.12335 13.1504 5.14248 13.1524 5.16149 13.1553L13.8782 14.3986C13.9294 14.4059 13.9815 14.4027 14.0315 14.3893L14.1782 14.35C14.2314 14.3356 14.2871 14.3328 14.3415 14.342L20.3668 15.3446C20.4498 15.3585 20.526 15.3992 20.5835 15.4606C20.6395 15.5202 20.7131 15.5604 20.7935 15.5753L32.1842 17.6946C32.1931 17.6963 32.202 17.6983 32.2108 17.7006C32.5745 17.7965 32.9268 17.9315 33.2615 18.1033C33.4219 18.1912 33.5615 18.3126 33.6708 18.4593C33.7801 18.6059 33.8565 18.7744 33.8948 18.9533C34.0891 20.0546 34.1841 21.171 34.1788 22.2893C34.2376 25.9708 34.078 29.6526 33.7008 33.3153ZM47.7688 23.4433C47.7522 23.4511 47.7353 23.4582 47.7181 23.4646L46.4888 23.9233C46.3432 23.9786 46.1824 23.9785 46.0369 23.9233C45.8913 23.868 45.771 23.7613 45.6988 23.6233C45.5938 23.3994 45.5435 23.1538 45.5522 22.9066C45.5321 22.6478 45.5797 22.3883 45.6901 22.1534C45.8005 21.9185 45.9701 21.7163 46.1822 21.5666L47.5495 21.1433C47.679 21.1015 47.8186 21.1037 47.9468 21.1493C48.1421 21.2213 48.3615 21.416 48.3615 21.928C48.3615 22.6873 48.4068 23.14 47.7688 23.4433ZM57.8375 17.962L57.7641 18.068C57.7035 18.1552 57.6774 18.2619 57.6908 18.3673C57.7569 18.8611 57.7739 19.3602 57.7415 19.8573C57.7078 20.3735 57.5964 20.8817 57.4108 21.3646C57.3989 21.3958 57.397 21.4299 57.4052 21.4622C57.4135 21.4946 57.4315 21.5236 57.4568 21.5453C57.4838 21.5687 57.5023 21.6003 57.5095 21.6352C57.5167 21.6701 57.5123 21.7065 57.4968 21.7386C57.3937 21.9604 57.2721 22.1731 57.1335 22.3746C57.0881 22.4386 57.0279 22.4908 56.9581 22.5266L49.8502 26.1666C49.7858 26.1996 49.7149 26.2178 49.6426 26.2199C49.5703 26.222 49.4984 26.2079 49.4323 26.1786C49.3662 26.1493 49.3074 26.1056 49.2603 26.0507C49.2132 25.9958 49.179 25.9311 49.1601 25.8613C48.6803 23.871 48.9719 21.7728 49.9761 19.9886C50.0135 19.9182 50.0677 19.8581 50.1341 19.8139C50.2004 19.7696 50.2767 19.7426 50.3561 19.7353L51.1495 19.6606C51.4391 19.6335 51.7221 19.558 51.9868 19.4373L57.1521 17.0773C57.2178 17.0474 57.2894 17.0325 57.3615 17.0337C57.4337 17.0348 57.5047 17.0521 57.5693 17.0841C57.634 17.1162 57.6907 17.1622 57.7354 17.2189C57.78 17.2756 57.8115 17.3416 57.8275 17.412C57.8488 17.504 57.8695 17.6053 57.8901 17.7146C57.898 17.7572 57.8973 17.801 57.8882 17.8433C57.879 17.8856 57.8615 17.9257 57.8368 17.9613L57.8375 17.962Z" fill="#25477B"/>
<path d="M80.9657 8.91933L83.6317 18.544L86.2771 9.01533L87.0544 9.13133L90.1977 9.60066L88.6571 8.05999L87.6357 7.03866L87.0017 6.40466L83.6264 3.02933L80.2651 6.39066L79.6324 7.02399L78.7624 7.89399L77.3311 9.32466L80.1817 9.00666L80.9657 8.91933Z" fill="#56A1D5"/>
<path d="M72.5509 22.6673L82.1756 20.0007L72.6482 17.3547L72.7636 16.5787L73.2342 13.422L71.6856 14.9707L70.6609 15.9947L70.0289 16.6267L66.6562 20L70.0236 23.368L70.6569 24.0013L71.5282 24.8727L72.9596 26.3033L72.6389 23.452L72.5509 22.6673Z" fill="#25477B"/>
<path d="M97.232 16.6353L96.6013 16.0047L95.7407 15.144L94.3074 13.7107L94.6267 16.5513L94.7147 17.3333L85.0894 20.0007L94.6174 22.646L94.5007 23.4247L94.03 26.5667L95.5787 25.018L96.5913 24.0053L97.226 23.3707L100.597 20L97.232 16.6353Z" fill="#56A1D5"/>
<path d="M86.2983 31.082L83.6317 21.458L80.9863 30.9853L80.2097 30.87L77.0557 30.4L78.5997 31.944L79.6263 32.9707L80.2597 33.6033L83.6263 36.9707L86.9963 33.6007L87.6277 32.9693L88.4923 32.1047L89.921 30.676L87.081 30.994L86.2983 31.082Z" fill="#56A1D5"/>
<path fill-rule="evenodd" clip-rule="evenodd" d="M57.8376 17.962L57.7642 18.068C57.7036 18.1552 57.6775 18.2619 57.6909 18.3673C57.757 18.8611 57.7739 19.3602 57.7416 19.8573C57.7079 20.3735 57.5964 20.8817 57.4109 21.3646C57.399 21.3958 57.3971 21.4299 57.4053 21.4622C57.4135 21.4946 57.4316 21.5236 57.4569 21.5453C57.4838 21.5687 57.5024 21.6003 57.5096 21.6352C57.5168 21.6701 57.5124 21.7065 57.4969 21.7386C57.3937 21.9604 57.2722 22.1731 57.1336 22.3746C57.0882 22.4386 57.028 22.4908 56.9582 22.5266L49.8502 26.1666C49.7859 26.1996 49.715 26.2178 49.6427 26.2199C49.5704 26.222 49.4985 26.2079 49.4324 26.1786C49.3662 26.1493 49.3075 26.1056 49.2604 26.0507C49.2133 25.9958 49.1791 25.9311 49.1602 25.8613C48.6804 23.871 48.9719 21.7728 49.9762 19.9886C50.0135 19.9182 50.0678 19.8581 50.1342 19.8139C50.2005 19.7696 50.2768 19.7426 50.3562 19.7353L51.1496 19.6606C51.4392 19.6335 51.7222 19.558 51.9869 19.4373L57.1522 17.0773C57.2179 17.0474 57.2894 17.0325 57.3616 17.0337C57.4338 17.0348 57.5048 17.0521 57.5694 17.0841C57.6341 17.1162 57.6908 17.1622 57.7355 17.2189C57.7801 17.2756 57.8116 17.3416 57.8276 17.412C57.8489 17.504 57.8696 17.6053 57.8902 17.7146C57.8981 17.7572 57.8974 17.801 57.8882 17.8433C57.8791 17.8856 57.8616 17.9257 57.8369 17.9613L57.8376 17.962Z" fill="#56A1D5"/>
<path d="M131.818 17.5234V21.5073H116.343V17.5234H131.818ZM117.584 5.35156V34.5H112.56V5.35156H117.584ZM135.682 5.35156V34.5H130.677V5.35156H135.682ZM153.399 30.1558V19.8257C153.399 19.0516 153.259 18.3843 152.979 17.8237C152.699 17.2632 152.272 16.8294 151.698 16.5225C151.137 16.2155 150.43 16.062 149.576 16.062C148.788 16.062 148.108 16.1955 147.534 16.4624C146.96 16.7293 146.513 17.0897 146.192 17.5435C145.872 17.9972 145.712 18.5111 145.712 19.085H140.907C140.907 18.2308 141.114 17.4033 141.528 16.6025C141.942 15.8018 142.542 15.0877 143.33 14.4604C144.117 13.8332 145.058 13.3394 146.152 12.979C147.247 12.6187 148.475 12.4385 149.836 12.4385C151.464 12.4385 152.906 12.7121 154.16 13.2593C155.428 13.8065 156.422 14.634 157.143 15.7417C157.877 16.8361 158.244 18.2108 158.244 19.8657V29.4951C158.244 30.4827 158.311 31.3703 158.444 32.1577C158.591 32.9318 158.798 33.6058 159.065 34.1797V34.5H154.12C153.893 33.9795 153.713 33.3188 153.58 32.5181C153.459 31.7039 153.399 30.9165 153.399 30.1558ZM154.1 21.3271L154.14 24.3101H150.677C149.783 24.3101 148.995 24.3968 148.314 24.5703C147.634 24.7305 147.067 24.9707 146.613 25.291C146.159 25.6113 145.819 25.9984 145.592 26.4521C145.365 26.9059 145.251 27.4198 145.251 27.9937C145.251 28.5675 145.385 29.0947 145.652 29.5752C145.919 30.0423 146.306 30.4093 146.813 30.6763C147.333 30.9432 147.961 31.0767 148.695 31.0767C149.682 31.0767 150.543 30.8765 151.277 30.4761C152.025 30.0623 152.612 29.5618 153.039 28.9746C153.466 28.374 153.693 27.8068 153.72 27.2729L155.281 29.415C155.121 29.9622 154.847 30.5495 154.46 31.1768C154.073 31.804 153.566 32.4046 152.939 32.9785C152.325 33.5391 151.584 33.9995 150.717 34.3599C149.863 34.7202 148.875 34.9004 147.754 34.9004C146.339 34.9004 145.078 34.6201 143.97 34.0596C142.862 33.4857 141.995 32.7183 141.368 31.7573C140.74 30.783 140.427 29.682 140.427 28.4541C140.427 27.3063 140.64 26.292 141.067 25.4111C141.508 24.5169 142.148 23.7695 142.989 23.1689C143.843 22.5684 144.884 22.1146 146.112 21.8076C147.34 21.4873 148.742 21.3271 150.316 21.3271H154.1ZM168.134 16.9629V34.5H163.309V12.8389H167.914L168.134 16.9629ZM174.76 12.6987L174.72 17.1831C174.427 17.1297 174.106 17.0897 173.759 17.063C173.426 17.0363 173.092 17.0229 172.758 17.0229C171.931 17.0229 171.203 17.1431 170.576 17.3833C169.949 17.6102 169.422 17.9438 168.995 18.3843C168.581 18.8114 168.261 19.3319 168.034 19.9458C167.807 20.5597 167.673 21.2471 167.633 22.0078L166.532 22.0879C166.532 20.7266 166.666 19.4653 166.933 18.3042C167.2 17.1431 167.6 16.1221 168.134 15.2412C168.681 14.3604 169.362 13.673 170.176 13.1792C171.003 12.6854 171.958 12.4385 173.039 12.4385C173.332 12.4385 173.646 12.4652 173.979 12.5186C174.326 12.5719 174.587 12.632 174.76 12.6987ZM190.596 30.0156V3.75H195.44V34.5H191.056L190.596 30.0156ZM176.502 23.9097V23.4893C176.502 21.8477 176.695 20.3529 177.083 19.0049C177.47 17.6436 178.03 16.4757 178.764 15.5015C179.498 14.5138 180.392 13.7598 181.447 13.2393C182.501 12.7054 183.689 12.4385 185.01 12.4385C186.318 12.4385 187.466 12.6921 188.454 13.1992C189.441 13.7064 190.282 14.4338 190.976 15.3813C191.67 16.3156 192.224 17.4367 192.638 18.7446C193.051 20.0392 193.345 21.4806 193.519 23.0688V24.4102C193.345 25.9583 193.051 27.373 192.638 28.6543C192.224 29.9355 191.67 31.0433 190.976 31.9775C190.282 32.9118 189.435 33.6325 188.434 34.1396C187.446 34.6468 186.292 34.9004 184.97 34.9004C183.662 34.9004 182.481 34.6268 181.427 34.0796C180.386 33.5324 179.498 32.765 178.764 31.7773C178.03 30.7897 177.47 29.6286 177.083 28.2939C176.695 26.946 176.502 25.4845 176.502 23.9097ZM181.327 23.4893V23.9097C181.327 24.8973 181.413 25.8182 181.587 26.6724C181.774 27.5265 182.061 28.2806 182.448 28.9346C182.835 29.5752 183.335 30.0824 183.949 30.4561C184.576 30.8164 185.324 30.9966 186.191 30.9966C187.286 30.9966 188.187 30.7563 188.894 30.2759C189.601 29.7954 190.155 29.1481 190.556 28.334C190.969 27.5065 191.25 26.5856 191.396 25.5713V21.9478C191.316 21.1603 191.15 20.4263 190.896 19.7456C190.656 19.0649 190.329 18.471 189.915 17.9639C189.501 17.4434 188.987 17.043 188.374 16.7627C187.773 16.4691 187.059 16.3223 186.231 16.3223C185.351 16.3223 184.603 16.5091 183.989 16.8828C183.375 17.2565 182.868 17.7703 182.468 18.4243C182.081 19.0783 181.794 19.839 181.607 20.7065C181.42 21.5741 181.327 22.5016 181.327 23.4893ZM206.371 29.6953L211.376 12.8389H214.459L213.618 17.8838L208.573 34.5H205.811L206.371 29.6953ZM203.428 12.8389L207.332 29.7754L207.652 34.5H204.569L198.704 12.8389H203.428ZM219.144 29.5752L222.927 12.8389H227.632L221.786 34.5H218.703L219.144 29.5752ZM214.979 12.8389L219.924 29.4951L220.545 34.5H217.782L212.677 17.8638L211.836 12.8389H214.979ZM243.127 30.1558V19.8257C243.127 19.0516 242.987 18.3843 242.707 17.8237C242.426 17.2632 241.999 16.8294 241.425 16.5225C240.865 16.2155 240.157 16.062 239.303 16.062C238.516 16.062 237.835 16.1955 237.261 16.4624C236.687 16.7293 236.24 17.0897 235.92 17.5435C235.6 17.9972 235.439 18.5111 235.439 19.085H230.635C230.635 18.2308 230.842 17.4033 231.255 16.6025C231.669 15.8018 232.27 15.0877 233.057 14.4604C233.845 13.8332 234.785 13.3394 235.88 12.979C236.974 12.6187 238.202 12.4385 239.563 12.4385C241.192 12.4385 242.633 12.7121 243.888 13.2593C245.156 13.8065 246.15 14.634 246.871 15.7417C247.605 16.8361 247.972 18.2108 247.972 19.8657V29.4951C247.972 30.4827 248.038 31.3703 248.172 32.1577C248.319 32.9318 248.526 33.6058 248.792 34.1797V34.5H243.848C243.621 33.9795 243.441 33.3188 243.307 32.5181C243.187 31.7039 243.127 30.9165 243.127 30.1558ZM243.828 21.3271L243.868 24.3101H240.404C239.51 24.3101 238.723 24.3968 238.042 24.5703C237.361 24.7305 236.794 24.9707 236.34 25.291C235.887 25.6113 235.546 25.9984 235.319 26.4521C235.092 26.9059 234.979 27.4198 234.979 27.9937C234.979 28.5675 235.112 29.0947 235.379 29.5752C235.646 30.0423 236.033 30.4093 236.541 30.6763C237.061 30.9432 237.688 31.0767 238.422 31.0767C239.41 31.0767 240.271 30.8765 241.005 30.4761C241.752 30.0623 242.34 29.5618 242.767 28.9746C243.194 28.374 243.421 27.8068 243.447 27.2729L245.009 29.415C244.849 29.9622 244.575 30.5495 244.188 31.1768C243.801 31.804 243.294 32.4046 242.667 32.9785C242.053 33.5391 241.312 33.9995 240.444 34.3599C239.59 34.7202 238.603 34.9004 237.481 34.9004C236.067 34.9004 234.806 34.6201 233.698 34.0596C232.59 33.4857 231.722 32.7183 231.095 31.7573C230.468 30.783 230.154 29.682 230.154 28.4541C230.154 27.3063 230.368 26.292 230.795 25.4111C231.235 24.5169 231.876 23.7695 232.717 23.1689C233.571 22.5684 234.612 22.1146 235.84 21.8076C237.068 21.4873 238.469 21.3271 240.044 21.3271H243.828ZM257.861 16.9629V34.5H253.037V12.8389H257.641L257.861 16.9629ZM264.488 12.6987L264.448 17.1831C264.154 17.1297 263.834 17.0897 263.487 17.063C263.153 17.0363 262.819 17.0229 262.486 17.0229C261.658 17.0229 260.931 17.1431 260.304 17.3833C259.676 17.6102 259.149 17.9438 258.722 18.3843C258.308 18.8114 257.988 19.3319 257.761 19.9458C257.534 20.5597 257.401 21.2471 257.361 22.0078L256.26 22.0879C256.26 20.7266 256.393 19.4653 256.66 18.3042C256.927 17.1431 257.327 16.1221 257.861 15.2412C258.409 14.3604 259.089 13.673 259.903 13.1792C260.731 12.6854 261.685 12.4385 262.766 12.4385C263.06 12.4385 263.373 12.4652 263.707 12.5186C264.054 12.5719 264.314 12.632 264.488 12.6987ZM276.66 34.9004C275.058 34.9004 273.61 34.6401 272.315 34.1196C271.034 33.5858 269.94 32.8451 269.032 31.8975C268.138 30.9499 267.451 29.8354 266.97 28.5542C266.49 27.2729 266.25 25.8916 266.25 24.4102V23.6094C266.25 21.9144 266.496 20.3796 266.99 19.0049C267.484 17.6302 268.171 16.4557 269.052 15.4814C269.933 14.4938 270.974 13.7397 272.175 13.2192C273.376 12.6987 274.678 12.4385 276.079 12.4385C277.627 12.4385 278.982 12.6987 280.143 13.2192C281.304 13.7397 282.265 14.4738 283.026 15.4214C283.8 16.3556 284.374 17.4701 284.748 18.7646C285.135 20.0592 285.328 21.4873 285.328 23.0488V25.1108H268.592V21.6475H280.563V21.2671C280.537 20.3996 280.363 19.5854 280.043 18.8247C279.736 18.064 279.262 17.45 278.622 16.9829C277.981 16.5158 277.127 16.2822 276.059 16.2822C275.258 16.2822 274.544 16.4557 273.917 16.8027C273.303 17.1364 272.789 17.6235 272.375 18.2642C271.962 18.9048 271.641 19.6789 271.415 20.5864C271.201 21.4806 271.094 22.4883 271.094 23.6094V24.4102C271.094 25.3577 271.221 26.2386 271.475 27.0527C271.742 27.8535 272.129 28.5542 272.636 29.1548C273.143 29.7554 273.757 30.2292 274.478 30.5762C275.198 30.9098 276.019 31.0767 276.94 31.0767C278.101 31.0767 279.135 30.8431 280.043 30.376C280.951 29.9089 281.738 29.2482 282.405 28.394L284.948 30.8564C284.481 31.5371 283.873 32.1911 283.126 32.8184C282.379 33.4323 281.464 33.9328 280.383 34.3198C279.316 34.7069 278.074 34.9004 276.66 34.9004Z" fill="#25477B"/>
</svg>
