<svg xmlns="http://www.w3.org/2000/svg" width="195" height="116" viewBox="0 0 195 116" fill="none">
<g id="Simplified Not Found Graphic 1" clip-path="url(#clip0_526_467)">
<g id="Group">
<path id="Vector" d="M137.663 76.4005C123.274 59.1143 118.469 48.0287 107.832 47.5167C94.808 46.891 87.6941 62.8439 66.2403 84.8836C54.6405 96.7935 41.8389 107.437 28.0459 116.64C56.9946 124.369 86.8089 128.271 116.746 128.248C140.443 128.26 164.08 125.82 187.288 120.967C163.479 104.811 147.746 88.5207 137.663 76.4005Z" fill="#ECEEF1"/>
<g id="Group_2" style="mix-blend-mode:multiply" opacity="0.5">
<path id="Vector_2" d="M187.292 120.977C163.479 104.822 147.746 88.5312 137.663 76.411C123.274 59.1248 118.469 48.0392 107.832 47.5272C105.853 47.4241 103.874 47.7326 102.017 48.4338C104.463 48.5807 106.844 49.2973 108.973 50.528C122.442 58.5097 122.986 88.6841 112.331 128.227C113.798 128.245 115.269 128.259 116.739 128.259C140.44 128.271 164.08 125.831 187.292 120.977Z" fill="#ECEEF1"/>
</g>
<path id="Vector_3" d="M31.2225 148.878C66.2316 148.936 100.454 138.362 129.473 118.522C121.48 118.259 113.638 116.253 106.481 112.64C81.0822 99.5498 77.7699 70.6303 59.8513 70.2672C49.2333 70.0598 43.9345 80.0903 21.0601 103.948C8.37901 117.179 -4.98478 129.72 -18.9751 141.518C-2.68074 146.412 14.2271 148.891 31.2225 148.878Z" fill="#ECEEF1"/>
<g id="Group_3" style="mix-blend-mode:multiply" opacity="0.5">
<path id="Vector_4" d="M106.481 112.64C81.0824 99.5499 77.77 70.6303 59.8514 70.2673C58.4448 70.2337 57.0409 70.4084 55.6841 70.7859C58.2313 71.3883 60.6325 72.5049 62.744 74.069C75.8962 83.9647 76.1471 112.448 62.401 146.088C86.4083 141.736 109.252 132.349 129.468 118.527C121.477 118.262 113.636 116.254 106.481 112.64Z" fill="#ECEEF1"/>
</g>
<path id="Vector_5" d="M98.3001 62.314C103.442 63.4446 104.01 71.4015 108.106 71.3695C111.893 71.3375 112.91 64.5148 117.403 64.2801C120.975 64.0917 122.428 68.3084 125.945 68.0986C127.321 68.0168 128.545 67.2809 129.605 66.2427C120.951 54.8655 116.195 47.9326 107.846 47.5308C98.6616 47.0899 92.4041 54.894 82.0088 67.2631C82.4098 67.6307 82.8785 67.9147 83.388 68.0986C88.0452 69.7341 92.5866 61.0448 98.3001 62.314Z" fill="#FBFCFC"/>
<path id="Vector_6" d="M115.711 20.9545L114.851 20.5563C114.851 20.5563 114.444 24.6272 109.751 23.973C105.831 21.7473 99.7037 21.7473 99.7037 21.7473C99.7037 21.7473 92.5688 24.5276 92.7232 28.8189C92.9337 34.536 97.798 33.8213 97.798 33.8213L97.6646 33.0285C92.2704 29.8073 97.8471 26.5862 99.2439 25.868L98.2998 34.4577C99.8315 35.2153 101.509 35.622 103.213 35.6488C103.522 35.6498 103.824 35.5617 104.085 35.3949C104.346 35.228 104.555 34.9893 104.687 34.7066L107.965 27.7843C108.614 27.9301 116.462 29.6296 115.711 20.9545Z" fill="#0078D3"/>
<path id="Vector_7" d="M115.711 20.9545L114.851 20.5563C114.851 20.5563 114.444 24.6272 109.751 23.973L107.955 27.7737C108.614 27.9301 116.462 29.6296 115.711 20.9545Z" fill="#0098E9"/>
<path id="Vector_8" d="M97.4892 54.6867C97.1769 52.9304 94.5342 52.7206 94.5342 52.7206L94.0639 52.7597C93.9842 52.7631 93.9074 52.7916 93.8445 52.8414C93.7816 52.8911 93.7356 52.9595 93.7129 53.037C93.555 53.5447 93.4896 54.0772 93.5199 54.6085C93.5324 54.7623 93.5992 54.9064 93.7082 55.0142C93.8172 55.122 93.961 55.1862 94.113 55.1952C95.0983 55.2564 96.0863 55.2564 97.0716 55.1952C97.1328 55.1917 97.1926 55.1756 97.2473 55.1477C97.3021 55.1198 97.3505 55.0808 97.3897 55.0331C97.4289 54.9854 97.458 54.93 97.4751 54.8704C97.4922 54.8108 97.497 54.7483 97.4892 54.6867Z" fill="#0078D3"/>
<path id="Vector_9" d="M94.9487 53.2763L95.4049 51.6942H94.2012L93.9379 53.0239C93.9239 53.0967 93.9251 53.1717 93.9415 53.244C93.9579 53.3164 93.9891 53.3844 94.0331 53.4437C94.0771 53.5031 94.1329 53.5524 94.1969 53.5884C94.261 53.6245 94.3317 53.6466 94.4047 53.6532C94.5244 53.6638 94.6441 53.632 94.7433 53.5633C94.8424 53.4946 94.9151 53.3932 94.9487 53.2763Z" fill="#FE916E"/>
<path id="Vector_10" d="M109.955 46.9964C109.499 46.2213 108.394 45.6702 106.895 45.3076L106.239 45.2862C106.181 45.2852 106.125 45.3015 106.077 45.3332C106.029 45.3649 105.991 45.4104 105.968 45.464C105.797 46.005 105.701 46.5673 105.681 47.135C105.676 47.2116 105.699 47.2873 105.745 47.3485C105.79 47.4097 105.856 47.4525 105.93 47.4692C106.267 47.537 106.611 47.5727 106.955 47.5759C107.748 47.6008 109.032 47.5332 109.703 47.4941C109.758 47.4902 109.812 47.4719 109.858 47.441C109.904 47.41 109.942 47.3675 109.967 47.3174C109.993 47.2674 110.005 47.2115 110.003 47.1553C110.001 47.099 109.984 47.0443 109.955 46.9964Z" fill="#0078D3"/>
<path id="Vector_11" d="M107.162 45.842L107.513 44.459L106.411 44.3594C106.411 44.4057 106.288 45.1132 106.207 45.6394C106.186 45.7671 106.215 45.8982 106.289 46.0041C106.362 46.11 106.474 46.1821 106.6 46.2047C106.722 46.2276 106.847 46.2028 106.951 46.1355C107.056 46.0682 107.131 45.9633 107.162 45.842Z" fill="#FE916E"/>
<path id="Vector_12" d="M98.3002 34.4578C97.6569 35.5269 97.2298 36.7149 97.0438 37.9528C96.756 39.8549 94.2958 50.521 93.9062 52.2169C93.899 52.2475 93.898 52.2792 93.9031 52.3103C93.9083 52.3413 93.9195 52.371 93.9362 52.3975C93.9529 52.4241 93.9747 52.4469 94.0003 52.4647C94.0259 52.4826 94.0548 52.495 94.0852 52.5013C94.3943 52.5771 94.7113 52.6153 95.0293 52.6151C95.1117 52.6112 95.1914 52.5842 95.2596 52.5371C95.3277 52.49 95.3817 52.4247 95.4153 52.3484L101.28 38.5892C101.28 38.5892 105.179 37.8283 106.611 39.542C107.471 40.5695 106.906 42.3863 106.141 44.9426C106.141 44.9426 107.081 45.419 107.709 45.1026C107.709 45.1026 110.633 40.4806 109.432 37.6363C108.878 36.3208 106.481 35.0267 104.101 34.792L98.3002 34.4578Z" fill="#25477B"/>
<path id="Vector_13" d="M97.6789 33.0285C97.6789 33.0285 98.3001 31.9157 99.2477 32.0934C99.5462 32.1676 99.8257 32.3051 100.068 32.497C100.31 32.6888 100.509 32.9306 100.652 33.2063L99.0828 33.9991C98.4616 34.3013 97.3631 33.9813 97.6789 33.0285Z" fill="#FE916E"/>
<path id="Vector_14" d="M104.701 19.8416L103.55 22.3304C103.55 22.3304 104.831 23.2832 106.137 22.9099L106.488 19.3546L104.701 19.8416Z" fill="#FFA361"/>
<path id="Vector_15" d="M107.541 17.1254C107.565 17.1717 108.049 20.5066 108.049 20.5066L106.161 20.7448L105.238 17.6516C105.238 17.6516 107.144 16.3717 107.541 17.1254Z" fill="#FE916E"/>
<path id="Vector_16" d="M105.933 17.9679C105.907 18.0002 105.888 18.0381 105.879 18.0788C105.869 18.1194 105.868 18.1617 105.877 18.2026L106.228 19.8452C106.234 19.8702 106.243 19.8942 106.256 19.9163C106.278 19.9834 106.315 20.0444 106.364 20.0944C106.414 20.1443 106.474 20.1819 106.54 20.204C106.606 20.2262 106.677 20.2323 106.746 20.2218C106.814 20.2113 106.88 20.1846 106.937 20.1438C107.191 19.9187 107.489 19.7503 107.811 19.6496C107.847 19.6436 107.883 19.6449 107.919 19.6535C107.954 19.6622 107.987 19.6779 108.016 19.6998C108.045 19.7217 108.07 19.7493 108.088 19.781C108.107 19.8127 108.119 19.8478 108.123 19.8843C108.195 20.3871 108.233 20.8944 108.236 21.4024C108.235 21.472 108.208 21.5387 108.16 21.5889C108.113 21.6391 108.048 21.669 107.979 21.6726C107.409 21.7142 106.835 21.6903 106.27 21.6015C106.222 21.5925 106.177 21.5701 106.14 21.5368C106.104 21.5036 106.077 21.4608 106.063 21.4131C105.926 20.9829 105.547 19.7847 105.389 19.4612C105.231 19.1377 104.807 19.1057 104.603 19.1057C104.566 19.104 104.529 19.0946 104.495 19.0781C104.461 19.0616 104.431 19.0383 104.407 19.0097C104.341 18.9467 104.289 18.8695 104.257 18.7838C104.224 18.698 104.211 18.606 104.219 18.5144C104.226 18.4229 104.254 18.3342 104.3 18.255C104.346 18.1758 104.409 18.108 104.484 18.0568C104.539 18.011 104.574 17.9448 104.581 17.8729C104.589 17.801 104.567 17.729 104.522 17.6729C104.465 17.6117 104.42 17.5392 104.391 17.4598C104.363 17.3804 104.35 17.2959 104.355 17.2115C104.36 17.1271 104.382 17.0446 104.42 16.9692C104.458 16.8938 104.511 16.8271 104.575 16.7733C104.708 16.6427 104.88 16.559 105.064 16.5346C105.248 16.5103 105.434 16.5466 105.596 16.6382C105.651 16.6669 105.713 16.6765 105.773 16.6656C105.834 16.6547 105.889 16.6238 105.93 16.5778C105.95 16.5537 105.976 16.5354 106.006 16.5248C106.036 16.5141 106.067 16.5116 106.098 16.5174C106.133 16.5224 106.168 16.5204 106.203 16.5114C106.237 16.5025 106.269 16.4869 106.297 16.4654C106.325 16.4439 106.348 16.417 106.366 16.3863C106.384 16.3556 106.395 16.3216 106.4 16.2863C106.415 16.1218 106.485 15.9676 106.6 15.8502C106.715 15.7328 106.866 15.6594 107.028 15.6427C107.857 15.4934 108.26 16.3538 108.236 16.9262C108.211 17.4986 107.306 17.6373 106.793 17.5235C106.624 17.5171 106.457 17.5545 106.306 17.6323C106.156 17.7101 106.027 17.8257 105.933 17.9679Z" fill="#0080B2"/>
<path id="Vector_17" d="M105.607 20.0301C105.607 20.0301 105.523 19.0524 105.112 18.9635C104.702 18.8746 104.256 19.1555 104.6 19.7741C105.028 20.5385 105.607 20.0301 105.607 20.0301Z" fill="#FE916E"/>
<path id="Vector_18" d="M122.277 16.2543V20.3109L108.899 18.8888V17.6729L122.277 16.2543Z" fill="#ECEEF1"/>
<path id="Vector_19" d="M108.73 17.5236H108.551C108.456 17.5236 108.379 17.6016 108.379 17.6978V18.864C108.379 18.9602 108.456 19.0382 108.551 19.0382H108.73C108.825 19.0382 108.902 18.9602 108.902 18.864V17.6978C108.902 17.6016 108.825 17.5236 108.73 17.5236Z" fill="#ECEEF1"/>
<path id="Vector_20" d="M122.832 16.0409H122.474C122.365 16.0409 122.277 16.1301 122.277 16.24V20.3251C122.277 20.4351 122.365 20.5242 122.474 20.5242H122.832C122.94 20.5242 123.028 20.4351 123.028 20.3251V16.24C123.028 16.1301 122.94 16.0409 122.832 16.0409Z" fill="#ECEEF1"/>
<path id="Vector_21" d="M114.851 20.5563C114.851 20.5563 114.921 19.639 115.041 19.543C115.16 19.447 116.093 18.4764 116.262 18.4764C116.43 18.4764 116.574 18.7964 116.262 18.9564C115.95 19.1163 115.886 19.6496 115.886 19.6496L116.841 19.7492C116.841 19.7492 116.104 20.894 115.788 21.0505C115.472 21.2069 114.851 20.5563 114.851 20.5563Z" fill="#FFA361"/>
<g id="Group_4" style="mix-blend-mode:multiply">
<path id="Vector_22" d="M108.73 17.5236H108.551C108.456 17.5236 108.379 17.6016 108.379 17.6978V18.864C108.379 18.9602 108.456 19.0382 108.551 19.0382H108.73C108.825 19.0382 108.902 18.9602 108.902 18.864V17.6978C108.902 17.6016 108.825 17.5236 108.73 17.5236Z" fill="#ECEEF1"/>
</g>
<g id="Group_5" style="mix-blend-mode:multiply">
<path id="Vector_23" d="M122.832 16.0409H122.474C122.365 16.0409 122.277 16.1301 122.277 16.24V20.3251C122.277 20.4351 122.365 20.5242 122.474 20.5242H122.832C122.94 20.5242 123.028 20.4351 123.028 20.3251V16.24C123.028 16.1301 122.94 16.0409 122.832 16.0409Z" fill="#ECEEF1"/>
</g>
</g>
</g>
<defs>
<clipPath id="clip0_526_467">
<rect width="194" height="116" fill="white" transform="translate(0.5)"/>
</clipPath>
</defs>
</svg>