<svg width="115" height="30" viewBox="0 0 115 30" fill="none" xmlns="http://www.w3.org/2000/svg">
<rect width="115" height="30" rx="15" fill="#FFDBDB"/>
<path d="M19.0434 10.373L16.0698 19H14.2719L18.018 9.04688H19.1665L19.0434 10.373ZM21.5317 19L18.5512 10.373L18.4213 9.04688H19.5766L23.3364 19H21.5317ZM21.3881 15.3086V16.6689H15.9741V15.3086H21.3881ZM28.7983 17.4688V8.5H30.4526V19H28.9555L28.7983 17.4688ZM23.9858 15.3838V15.2402C23.9858 14.6797 24.0519 14.1693 24.184 13.709C24.3162 13.2441 24.5076 12.8454 24.7583 12.5127C25.0089 12.1755 25.3142 11.918 25.6743 11.7402C26.0343 11.5579 26.4399 11.4668 26.8911 11.4668C27.3377 11.4668 27.7296 11.5534 28.0668 11.7266C28.4041 11.8997 28.6912 12.1481 28.9282 12.4717C29.1652 12.7907 29.3543 13.1735 29.4956 13.6201C29.6368 14.0622 29.7371 14.5544 29.7963 15.0967V15.5547C29.7371 16.0833 29.6368 16.5664 29.4956 17.0039C29.3543 17.4414 29.1652 17.8197 28.9282 18.1387C28.6912 18.4577 28.4018 18.7038 28.06 18.877C27.7228 19.0501 27.3286 19.1367 26.8774 19.1367C26.4308 19.1367 26.0275 19.0433 25.6674 18.8564C25.312 18.6696 25.0089 18.4076 24.7583 18.0703C24.5076 17.7331 24.3162 17.3366 24.184 16.8809C24.0519 16.4206 23.9858 15.9215 23.9858 15.3838ZM25.6333 15.2402V15.3838C25.6333 15.721 25.6629 16.0355 25.7221 16.3271C25.7859 16.6188 25.8839 16.8763 26.0161 17.0996C26.1482 17.3184 26.3191 17.4915 26.5288 17.6191C26.743 17.7422 26.9982 17.8037 27.2944 17.8037C27.6681 17.8037 27.9757 17.7217 28.2172 17.5576C28.4588 17.3936 28.6479 17.1725 28.7846 16.8945C28.9259 16.612 29.0216 16.2975 29.0717 15.9512V14.7139C29.0444 14.445 28.9874 14.1943 28.9008 13.9619C28.8188 13.7295 28.7071 13.5267 28.5659 13.3535C28.4246 13.1758 28.2491 13.0391 28.0395 12.9434C27.8344 12.8431 27.5906 12.793 27.3081 12.793C27.0073 12.793 26.7521 12.8568 26.5424 12.9844C26.3328 13.112 26.1596 13.2874 26.0229 13.5107C25.8907 13.734 25.7928 13.9938 25.729 14.29C25.6652 14.5863 25.6333 14.903 25.6333 15.2402ZM34.5815 17.6943L36.393 11.6035H38.102L35.5317 19H34.4653L34.5815 17.6943ZM33.1938 11.6035L35.0395 17.7217L35.1284 19H34.062L31.478 11.6035H33.1938ZM43.1811 17.5166V13.9893C43.1811 13.7249 43.1333 13.4971 43.0376 13.3057C42.9418 13.1143 42.796 12.9661 42.6001 12.8613C42.4086 12.7565 42.1671 12.7041 41.8754 12.7041C41.6066 12.7041 41.3741 12.7497 41.1782 12.8408C40.9822 12.932 40.8295 13.055 40.7202 13.21C40.6108 13.3649 40.5561 13.5404 40.5561 13.7363H38.9155C38.9155 13.4447 38.9861 13.1621 39.1274 12.8887C39.2687 12.6152 39.4737 12.3714 39.7426 12.1572C40.0115 11.943 40.3328 11.7744 40.7065 11.6514C41.0802 11.5283 41.4995 11.4668 41.9643 11.4668C42.5203 11.4668 43.0125 11.5602 43.4409 11.7471C43.8738 11.9339 44.2133 12.2165 44.4594 12.5947C44.7101 12.9684 44.8354 13.4378 44.8354 14.0029V17.291C44.8354 17.6283 44.8582 17.9313 44.9038 18.2002C44.9539 18.4645 45.0245 18.6947 45.1157 18.8906V19H43.4272C43.3497 18.8223 43.2882 18.5967 43.2426 18.3232C43.2016 18.0452 43.1811 17.7764 43.1811 17.5166ZM43.4204 14.502L43.434 15.5205H42.2514C41.9461 15.5205 41.6772 15.5501 41.4448 15.6094C41.2124 15.6641 41.0187 15.7461 40.8637 15.8555C40.7088 15.9648 40.5926 16.097 40.5151 16.252C40.4376 16.4069 40.3989 16.5824 40.3989 16.7783C40.3989 16.9743 40.4445 17.1543 40.5356 17.3184C40.6267 17.4779 40.7589 17.6032 40.9321 17.6943C41.1098 17.7855 41.324 17.8311 41.5747 17.8311C41.9119 17.8311 42.2058 17.7627 42.4565 17.626C42.7117 17.4847 42.9122 17.3138 43.0581 17.1133C43.2039 16.9082 43.2814 16.7145 43.2905 16.5322L43.8237 17.2637C43.769 17.4505 43.6756 17.651 43.5434 17.8652C43.4112 18.0794 43.2381 18.2845 43.0239 18.4805C42.8142 18.6719 42.5613 18.8291 42.2651 18.9521C41.9734 19.0752 41.6362 19.1367 41.2534 19.1367C40.7703 19.1367 40.3396 19.041 39.9614 18.8496C39.5831 18.6536 39.2869 18.3916 39.0727 18.0635C38.8585 17.7308 38.7514 17.3548 38.7514 16.9355C38.7514 16.5436 38.8243 16.1973 38.9702 15.8965C39.1206 15.5911 39.3393 15.3359 39.6264 15.1309C39.9181 14.9258 40.2736 14.7708 40.6928 14.666C41.1121 14.5566 41.5906 14.502 42.1284 14.502H43.4204ZM48.1918 13.1826V19H46.5444V11.6035H48.0961L48.1918 13.1826ZM47.8979 15.0283L47.3647 15.0215C47.3693 14.4974 47.4422 14.0166 47.5835 13.5791C47.7293 13.1416 47.9298 12.7656 48.185 12.4512C48.4448 12.1367 48.7547 11.8952 49.1147 11.7266C49.4747 11.5534 49.8758 11.4668 50.3178 11.4668C50.6733 11.4668 50.9946 11.5169 51.2817 11.6172C51.5734 11.7129 51.8217 11.8701 52.0268 12.0889C52.2364 12.3076 52.396 12.5924 52.5053 12.9434C52.6147 13.2897 52.6694 13.7158 52.6694 14.2217V19H51.0151V14.2148C51.0151 13.8594 50.9627 13.5791 50.8579 13.374C50.7576 13.1644 50.6095 13.0163 50.4135 12.9297C50.2221 12.8385 49.9829 12.793 49.6958 12.793C49.4132 12.793 49.1603 12.8522 48.937 12.9707C48.7137 13.0892 48.5245 13.251 48.3696 13.4561C48.2192 13.6611 48.103 13.8981 48.021 14.167C47.9389 14.4359 47.8979 14.723 47.8979 15.0283ZM57.3725 17.8242C57.6414 17.8242 57.8829 17.7718 58.0971 17.667C58.3159 17.5576 58.4913 17.4072 58.6235 17.2158C58.7602 17.0244 58.8354 16.8034 58.8491 16.5527H60.4008C60.3917 17.0312 60.2504 17.4665 59.977 17.8584C59.7036 18.2503 59.3413 18.5625 58.8901 18.7949C58.4389 19.0228 57.9399 19.1367 57.393 19.1367C56.8279 19.1367 56.3357 19.041 55.9165 18.8496C55.4972 18.6536 55.1486 18.3848 54.8706 18.043C54.5926 17.7012 54.3829 17.307 54.2417 16.8604C54.1049 16.4137 54.0366 15.9352 54.0366 15.4248V15.1855C54.0366 14.6751 54.1049 14.1966 54.2417 13.75C54.3829 13.2988 54.5926 12.9023 54.8706 12.5605C55.1486 12.2188 55.4972 11.9521 55.9165 11.7607C56.3357 11.5648 56.8256 11.4668 57.3862 11.4668C57.9786 11.4668 58.4982 11.5853 58.9448 11.8223C59.3914 12.0547 59.7423 12.3805 59.9975 12.7998C60.2573 13.2145 60.3917 13.6976 60.4008 14.249H58.8491C58.8354 13.9756 58.767 13.7295 58.644 13.5107C58.5255 13.2874 58.3569 13.1097 58.1381 12.9775C57.9239 12.8454 57.6665 12.7793 57.3657 12.7793C57.033 12.7793 56.7573 12.8477 56.5385 12.9844C56.3198 13.1165 56.1489 13.2988 56.0258 13.5312C55.9028 13.7591 55.8139 14.0166 55.7592 14.3037C55.7091 14.5863 55.684 14.8802 55.684 15.1855V15.4248C55.684 15.7301 55.7091 16.0264 55.7592 16.3135C55.8094 16.6006 55.896 16.8581 56.019 17.0859C56.1466 17.3092 56.3198 17.4893 56.5385 17.626C56.7573 17.7581 57.0353 17.8242 57.3725 17.8242ZM64.9262 19.1367C64.3793 19.1367 63.8849 19.0479 63.4428 18.8701C63.0053 18.6878 62.6316 18.4349 62.3217 18.1113C62.0164 17.7878 61.7817 17.4072 61.6176 16.9697C61.4536 16.5322 61.3715 16.0605 61.3715 15.5547V15.2812C61.3715 14.7025 61.4558 14.1784 61.6245 13.709C61.7931 13.2396 62.0278 12.8385 62.3286 12.5059C62.6293 12.1686 62.9848 11.9111 63.395 11.7334C63.8051 11.5557 64.2495 11.4668 64.728 11.4668C65.2566 11.4668 65.7192 11.5557 66.1157 11.7334C66.5122 11.9111 66.8403 12.1618 67.1001 12.4854C67.3644 12.8044 67.5603 13.1849 67.6879 13.627C67.8201 14.069 67.8862 14.5566 67.8862 15.0898V15.7939H62.1713V14.6113H66.2592V14.4814C66.2501 14.1852 66.1909 13.9072 66.0815 13.6475C65.9767 13.3877 65.8149 13.1781 65.5961 13.0186C65.3774 12.859 65.0857 12.7793 64.7211 12.7793C64.4477 12.7793 64.2039 12.8385 63.9897 12.957C63.7801 13.071 63.6046 13.2373 63.4633 13.4561C63.3221 13.6748 63.2127 13.9391 63.1352 14.249C63.0623 14.5544 63.0258 14.8984 63.0258 15.2812V15.5547C63.0258 15.8783 63.0691 16.179 63.1557 16.457C63.2469 16.7305 63.379 16.9697 63.5522 17.1748C63.7254 17.3799 63.935 17.5417 64.1811 17.6602C64.4272 17.7741 64.7075 17.8311 65.0219 17.8311C65.4184 17.8311 65.7716 17.7513 66.0815 17.5918C66.3914 17.4323 66.6603 17.2067 66.8881 16.915L67.7563 17.7559C67.5968 17.9883 67.3894 18.2116 67.1342 18.4258C66.879 18.6354 66.5668 18.8063 66.1977 18.9385C65.8331 19.0706 65.4093 19.1367 64.9262 19.1367ZM73.6831 17.4688V8.5H75.3374V19H73.8403L73.6831 17.4688ZM68.8706 15.3838V15.2402C68.8706 14.6797 68.9366 14.1693 69.0688 13.709C69.201 13.2441 69.3924 12.8454 69.643 12.5127C69.8937 12.1755 70.199 11.918 70.559 11.7402C70.9191 11.5579 71.3247 11.4668 71.7758 11.4668C72.2224 11.4668 72.6144 11.5534 72.9516 11.7266C73.2889 11.8997 73.576 12.1481 73.8129 12.4717C74.0499 12.7907 74.239 13.1735 74.3803 13.6201C74.5216 14.0622 74.6219 14.5544 74.6811 15.0967V15.5547C74.6219 16.0833 74.5216 16.5664 74.3803 17.0039C74.239 17.4414 74.0499 17.8197 73.8129 18.1387C73.576 18.4577 73.2866 18.7038 72.9448 18.877C72.6075 19.0501 72.2133 19.1367 71.7622 19.1367C71.3155 19.1367 70.9122 19.0433 70.5522 18.8564C70.1967 18.6696 69.8937 18.4076 69.643 18.0703C69.3924 17.7331 69.201 17.3366 69.0688 16.8809C68.9366 16.4206 68.8706 15.9215 68.8706 15.3838ZM70.518 15.2402V15.3838C70.518 15.721 70.5476 16.0355 70.6069 16.3271C70.6707 16.6188 70.7687 16.8763 70.9008 17.0996C71.033 17.3184 71.2039 17.4915 71.4135 17.6191C71.6277 17.7422 71.8829 17.8037 72.1792 17.8037C72.5529 17.8037 72.8605 17.7217 73.102 17.5576C73.3435 17.3936 73.5327 17.1725 73.6694 16.8945C73.8107 16.612 73.9064 16.2975 73.9565 15.9512V14.7139C73.9292 14.445 73.8722 14.1943 73.7856 13.9619C73.7036 13.7295 73.5919 13.5267 73.4506 13.3535C73.3094 13.1758 73.1339 13.0391 72.9243 12.9434C72.7192 12.8431 72.4754 12.793 72.1928 12.793C71.892 12.793 71.6368 12.8568 71.4272 12.9844C71.2176 13.112 71.0444 13.2874 70.9077 13.5107C70.7755 13.734 70.6775 13.9938 70.6137 14.29C70.5499 14.5863 70.518 14.903 70.518 15.2402Z" fill="#D53C28"/>
<rect x="88.8636" y="16.4" width="2.03991" height="4" rx="1.01996" fill="#D53C28"/>
<rect x="97.0233" y="8.39999" width="2.03991" height="12" rx="1.01996" fill="#D53C28"/>
<rect x="92.9435" y="12.3999" width="2.03991" height="8" rx="1.01996" fill="#D53C28"/>
</svg>
