<svg width="130" height="30" viewBox="0 0 130 30" fill="none" xmlns="http://www.w3.org/2000/svg">
<rect width="130" height="30" rx="15" fill="#FFF5CB"/>
<path d="M14.4697 9.04688V19H12.7539V9.04688H14.4697ZM18.0722 13.1826V19H16.4248V11.6035H17.9765L18.0722 13.1826ZM17.7783 15.0283L17.2451 15.0215C17.2496 14.4974 17.3226 14.0166 17.4638 13.5791C17.6097 13.1416 17.8102 12.7656 18.0654 12.4512C18.3252 12.1367 18.6351 11.8952 18.9951 11.7266C19.3551 11.5534 19.7562 11.4668 20.1982 11.4668C20.5537 11.4668 20.875 11.5169 21.1621 11.6172C21.4537 11.7129 21.7021 11.8701 21.9072 12.0889C22.1168 12.3076 22.2763 12.5924 22.3857 12.9434C22.4951 13.2897 22.5498 13.7158 22.5498 14.2217V19H20.8955V14.2148C20.8955 13.8594 20.8431 13.5791 20.7383 13.374C20.638 13.1644 20.4899 13.0163 20.2939 12.9297C20.1025 12.8385 19.8633 12.793 19.5761 12.793C19.2936 12.793 19.0407 12.8522 18.8174 12.9707C18.594 13.0892 18.4049 13.251 18.25 13.4561C18.0996 13.6611 17.9834 13.8981 17.9013 14.167C17.8193 14.4359 17.7783 14.723 17.7783 15.0283ZM27.622 11.6035V12.8066H23.4521V11.6035H27.622ZM24.6552 9.79199H26.3027V16.9561C26.3027 17.1839 26.3346 17.3594 26.3984 17.4824C26.4668 17.6009 26.5602 17.6807 26.6787 17.7217C26.7972 17.7627 26.9362 17.7832 27.0957 17.7832C27.2096 17.7832 27.319 17.7764 27.4238 17.7627C27.5286 17.749 27.6129 17.7354 27.6767 17.7217L27.6836 18.9795C27.5468 19.0205 27.3873 19.057 27.205 19.0889C27.0273 19.1208 26.8222 19.1367 26.5898 19.1367C26.2116 19.1367 25.8766 19.0706 25.5849 18.9385C25.2933 18.8018 25.0654 18.5807 24.9013 18.2754C24.7373 17.9701 24.6552 17.5645 24.6552 17.0586V9.79199ZM32.1543 19.1367C31.6074 19.1367 31.1129 19.0479 30.6709 18.8701C30.2334 18.6878 29.8597 18.4349 29.5498 18.1113C29.2444 17.7878 29.0097 17.4072 28.8457 16.9697C28.6816 16.5322 28.5996 16.0605 28.5996 15.5547V15.2812C28.5996 14.7025 28.6839 14.1784 28.8525 13.709C29.0211 13.2396 29.2558 12.8385 29.5566 12.5059C29.8574 12.1686 30.2129 11.9111 30.623 11.7334C31.0332 11.5557 31.4775 11.4668 31.956 11.4668C32.4847 11.4668 32.9472 11.5557 33.3437 11.7334C33.7402 11.9111 34.0683 12.1618 34.3281 12.4854C34.5924 12.8044 34.7884 13.1849 34.916 13.627C35.0481 14.069 35.1142 14.5566 35.1142 15.0898V15.7939H29.3994V14.6113H33.4873V14.4814C33.4782 14.1852 33.4189 13.9072 33.3095 13.6475C33.2047 13.3877 33.0429 13.1781 32.8242 13.0186C32.6054 12.859 32.3138 12.7793 31.9492 12.7793C31.6758 12.7793 31.4319 12.8385 31.2177 12.957C31.0081 13.071 30.8327 13.2373 30.6914 13.4561C30.5501 13.6748 30.4407 13.9391 30.3633 14.249C30.2903 14.5544 30.2539 14.8984 30.2539 15.2812V15.5547C30.2539 15.8783 30.2972 16.179 30.3838 16.457C30.4749 16.7305 30.6071 16.9697 30.7802 17.1748C30.9534 17.3799 31.1631 17.5417 31.4091 17.6602C31.6552 17.7741 31.9355 17.8311 32.25 17.8311C32.6465 17.8311 32.9996 17.7513 33.3095 17.5918C33.6194 17.4323 33.8883 17.2067 34.1162 16.915L34.9843 17.7559C34.8248 17.9883 34.6175 18.2116 34.3623 18.4258C34.1071 18.6354 33.7949 18.8063 33.4258 18.9385C33.0612 19.0706 32.6373 19.1367 32.1543 19.1367ZM38.0537 13.0117V19H36.4062V11.6035H37.9785L38.0537 13.0117ZM40.3164 11.5557L40.3027 13.0869C40.2024 13.0687 40.0931 13.055 39.9746 13.0459C39.8606 13.0368 39.7467 13.0322 39.6328 13.0322C39.3502 13.0322 39.1019 13.0732 38.8877 13.1553C38.6735 13.2327 38.4935 13.3467 38.3476 13.4971C38.2063 13.6429 38.097 13.8206 38.0195 14.0303C37.942 14.2399 37.8965 14.4746 37.8828 14.7344L37.5068 14.7617C37.5068 14.2969 37.5524 13.8662 37.6435 13.4697C37.7347 13.0732 37.8714 12.7246 38.0537 12.4238C38.2405 12.123 38.473 11.8883 38.7509 11.7197C39.0335 11.5511 39.3593 11.4668 39.7285 11.4668C39.8287 11.4668 39.9358 11.4759 40.0498 11.4941C40.1683 11.5124 40.2571 11.5329 40.3164 11.5557ZM42.9961 13.1074V19H41.3486V11.6035H42.9004L42.9961 13.1074ZM42.7295 15.0283L42.1689 15.0215C42.1689 14.5111 42.2327 14.0394 42.3603 13.6064C42.4879 13.1735 42.6748 12.7975 42.9209 12.4785C43.167 12.1549 43.4723 11.9066 43.8369 11.7334C44.206 11.5557 44.6321 11.4668 45.1152 11.4668C45.4524 11.4668 45.7601 11.5169 46.0381 11.6172C46.3206 11.7129 46.5644 11.8656 46.7695 12.0752C46.9791 12.2848 47.1386 12.5537 47.248 12.8818C47.3619 13.21 47.4189 13.6064 47.4189 14.0713V19H45.7715V14.2148C45.7715 13.8548 45.7168 13.5723 45.6074 13.3672C45.5026 13.1621 45.3499 13.0163 45.1494 12.9297C44.9534 12.8385 44.7187 12.793 44.4453 12.793C44.1354 12.793 43.8711 12.8522 43.6523 12.9707C43.4381 13.0892 43.2627 13.251 43.1259 13.4561C42.9892 13.6611 42.889 13.8981 42.8252 14.167C42.7614 14.4359 42.7295 14.723 42.7295 15.0283ZM47.3164 14.5908L46.5439 14.7617C46.5439 14.3151 46.6054 13.8936 46.7285 13.4971C46.8561 13.096 47.0407 12.7451 47.2822 12.4443C47.5283 12.139 47.8313 11.8997 48.1914 11.7266C48.5514 11.5534 48.9638 11.4668 49.4287 11.4668C49.8069 11.4668 50.1442 11.5192 50.4404 11.624C50.7412 11.7243 50.9964 11.8838 51.206 12.1025C51.4157 12.3213 51.5752 12.6061 51.6845 12.957C51.7939 13.3034 51.8486 13.7227 51.8486 14.2148V19H50.1943V14.208C50.1943 13.8343 50.1396 13.5449 50.0302 13.3398C49.9254 13.1348 49.775 12.9935 49.5791 12.916C49.3831 12.834 49.1484 12.793 48.875 12.793C48.6198 12.793 48.3942 12.8408 48.1982 12.9365C48.0068 13.0277 47.845 13.1576 47.7129 13.3262C47.5807 13.4902 47.4804 13.6794 47.4121 13.8936C47.3483 14.1077 47.3164 14.3402 47.3164 14.5908ZM56.8047 19.1367C56.2578 19.1367 55.7633 19.0479 55.3213 18.8701C54.8838 18.6878 54.5101 18.4349 54.2002 18.1113C53.8948 17.7878 53.6601 17.4072 53.4961 16.9697C53.332 16.5322 53.25 16.0605 53.25 15.5547V15.2812C53.25 14.7025 53.3343 14.1784 53.5029 13.709C53.6715 13.2396 53.9062 12.8385 54.207 12.5059C54.5078 12.1686 54.8633 11.9111 55.2734 11.7334C55.6836 11.5557 56.1279 11.4668 56.6064 11.4668C57.1351 11.4668 57.5976 11.5557 57.9941 11.7334C58.3906 11.9111 58.7187 12.1618 58.9785 12.4854C59.2428 12.8044 59.4388 13.1849 59.5664 13.627C59.6985 14.069 59.7646 14.5566 59.7646 15.0898V15.7939H54.0498V14.6113H58.1377V14.4814C58.1286 14.1852 58.0693 13.9072 57.9599 13.6475C57.8551 13.3877 57.6933 13.1781 57.4746 13.0186C57.2558 12.859 56.9642 12.7793 56.5996 12.7793C56.3261 12.7793 56.0823 12.8385 55.8681 12.957C55.6585 13.071 55.483 13.2373 55.3418 13.4561C55.2005 13.6748 55.0911 13.9391 55.0136 14.249C54.9407 14.5544 54.9043 14.8984 54.9043 15.2812V15.5547C54.9043 15.8783 54.9476 16.179 55.0341 16.457C55.1253 16.7305 55.2575 16.9697 55.4306 17.1748C55.6038 17.3799 55.8134 17.5417 56.0595 17.6602C56.3056 17.7741 56.5859 17.8311 56.9004 17.8311C57.2968 17.8311 57.65 17.7513 57.9599 17.5918C58.2698 17.4323 58.5387 17.2067 58.7666 16.915L59.6347 17.7559C59.4752 17.9883 59.2679 18.2116 59.0127 18.4258C58.7575 18.6354 58.4453 18.8063 58.0761 18.9385C57.7116 19.0706 57.2877 19.1367 56.8047 19.1367ZM65.5615 17.4688V8.5H67.2158V19H65.7187L65.5615 17.4688ZM60.749 15.3838V15.2402C60.749 14.6797 60.8151 14.1693 60.9472 13.709C61.0794 13.2441 61.2708 12.8454 61.5215 12.5127C61.7721 12.1755 62.0774 11.918 62.4375 11.7402C62.7975 11.5579 63.2031 11.4668 63.6543 11.4668C64.1009 11.4668 64.4928 11.5534 64.83 11.7266C65.1673 11.8997 65.4544 12.1481 65.6914 12.4717C65.9284 12.7907 66.1175 13.1735 66.2588 13.6201C66.4 14.0622 66.5003 14.5544 66.5595 15.0967V15.5547C66.5003 16.0833 66.4 16.5664 66.2588 17.0039C66.1175 17.4414 65.9284 17.8197 65.6914 18.1387C65.4544 18.4577 65.165 18.7038 64.8232 18.877C64.486 19.0501 64.0918 19.1367 63.6406 19.1367C63.194 19.1367 62.7907 19.0433 62.4306 18.8564C62.0752 18.6696 61.7721 18.4076 61.5215 18.0703C61.2708 17.7331 61.0794 17.3366 60.9472 16.8809C60.8151 16.4206 60.749 15.9215 60.749 15.3838ZM62.3965 15.2402V15.3838C62.3965 15.721 62.4261 16.0355 62.4853 16.3271C62.5491 16.6188 62.6471 16.8763 62.7793 17.0996C62.9114 17.3184 63.0823 17.4915 63.292 17.6191C63.5062 17.7422 63.7614 17.8037 64.0576 17.8037C64.4313 17.8037 64.7389 17.7217 64.9804 17.5576C65.222 17.3936 65.4111 17.1725 65.5478 16.8945C65.6891 16.612 65.7848 16.2975 65.8349 15.9512V14.7139C65.8076 14.445 65.7506 14.1943 65.664 13.9619C65.582 13.7295 65.4703 13.5267 65.3291 13.3535C65.1878 13.1758 65.0123 13.0391 64.8027 12.9434C64.5976 12.8431 64.3538 12.793 64.0713 12.793C63.7705 12.793 63.5153 12.8568 63.3056 12.9844C63.096 13.112 62.9228 13.2874 62.7861 13.5107C62.6539 13.734 62.556 13.9938 62.4922 14.29C62.4284 14.5863 62.3965 14.903 62.3965 15.2402ZM70.7021 11.6035V19H69.0478V11.6035H70.7021ZM68.9384 9.66211C68.9384 9.41146 69.0205 9.2041 69.1845 9.04004C69.3532 8.87142 69.5856 8.78711 69.8818 8.78711C70.1735 8.78711 70.4036 8.87142 70.5722 9.04004C70.7409 9.2041 70.8252 9.41146 70.8252 9.66211C70.8252 9.9082 70.7409 10.1133 70.5722 10.2773C70.4036 10.4414 70.1735 10.5234 69.8818 10.5234C69.5856 10.5234 69.3532 10.4414 69.1845 10.2773C69.0205 10.1133 68.9384 9.9082 68.9384 9.66211ZM76.6767 17.5166V13.9893C76.6767 13.7249 76.6289 13.4971 76.5332 13.3057C76.4375 13.1143 76.2916 12.9661 76.0957 12.8613C75.9043 12.7565 75.6627 12.7041 75.3711 12.7041C75.1022 12.7041 74.8698 12.7497 74.6738 12.8408C74.4778 12.932 74.3252 13.055 74.2158 13.21C74.1064 13.3649 74.0517 13.5404 74.0517 13.7363H72.4111C72.4111 13.4447 72.4817 13.1621 72.623 12.8887C72.7643 12.6152 72.9694 12.3714 73.2383 12.1572C73.5071 11.943 73.8284 11.7744 74.2021 11.6514C74.5758 11.5283 74.9951 11.4668 75.4599 11.4668C76.0159 11.4668 76.5081 11.5602 76.9365 11.7471C77.3694 11.9339 77.709 12.2165 77.955 12.5947C78.2057 12.9684 78.331 13.4378 78.331 14.0029V17.291C78.331 17.6283 78.3538 17.9313 78.3994 18.2002C78.4495 18.4645 78.5202 18.6947 78.6113 18.8906V19H76.9228C76.8453 18.8223 76.7838 18.5967 76.7383 18.3232C76.6972 18.0452 76.6767 17.7764 76.6767 17.5166ZM76.916 14.502L76.9297 15.5205H75.747C75.4417 15.5205 75.1728 15.5501 74.9404 15.6094C74.708 15.6641 74.5143 15.7461 74.3593 15.8555C74.2044 15.9648 74.0882 16.097 74.0107 16.252C73.9332 16.4069 73.8945 16.5824 73.8945 16.7783C73.8945 16.9743 73.9401 17.1543 74.0312 17.3184C74.1224 17.4779 74.2545 17.6032 74.4277 17.6943C74.6054 17.7855 74.8196 17.8311 75.0703 17.8311C75.4075 17.8311 75.7015 17.7627 75.9521 17.626C76.2073 17.4847 76.4078 17.3138 76.5537 17.1133C76.6995 16.9082 76.777 16.7145 76.7861 16.5322L77.3193 17.2637C77.2646 17.4505 77.1712 17.651 77.039 17.8652C76.9069 18.0794 76.7337 18.2845 76.5195 18.4805C76.3099 18.6719 76.0569 18.8291 75.7607 18.9521C75.469 19.0752 75.1318 19.1367 74.749 19.1367C74.2659 19.1367 73.8353 19.041 73.457 18.8496C73.0787 18.6536 72.7825 18.3916 72.5683 18.0635C72.3541 17.7308 72.247 17.3548 72.247 16.9355C72.247 16.5436 72.32 16.1973 72.4658 15.8965C72.6162 15.5911 72.8349 15.3359 73.122 15.1309C73.4137 14.9258 73.7692 14.7708 74.1884 14.666C74.6077 14.5566 75.0862 14.502 75.624 14.502H76.916ZM83.4443 11.6035V12.8066H79.2744V11.6035H83.4443ZM80.4775 9.79199H82.125V16.9561C82.125 17.1839 82.1569 17.3594 82.2207 17.4824C82.289 17.6009 82.3825 17.6807 82.5009 17.7217C82.6194 17.7627 82.7584 17.7832 82.9179 17.7832C83.0319 17.7832 83.1412 17.7764 83.2461 17.7627C83.3509 17.749 83.4352 17.7354 83.499 17.7217L83.5058 18.9795C83.3691 19.0205 83.2096 19.057 83.0273 19.0889C82.8496 19.1208 82.6445 19.1367 82.4121 19.1367C82.0338 19.1367 81.6989 19.0706 81.4072 18.9385C81.1155 18.8018 80.8877 18.5807 80.7236 18.2754C80.5595 17.9701 80.4775 17.5645 80.4775 17.0586V9.79199ZM87.9765 19.1367C87.4297 19.1367 86.9352 19.0479 86.4931 18.8701C86.0556 18.6878 85.6819 18.4349 85.372 18.1113C85.0667 17.7878 84.832 17.4072 84.6679 16.9697C84.5039 16.5322 84.4218 16.0605 84.4218 15.5547V15.2812C84.4218 14.7025 84.5062 14.1784 84.6748 13.709C84.8434 13.2396 85.0781 12.8385 85.3789 12.5059C85.6797 12.1686 86.0351 11.9111 86.4453 11.7334C86.8554 11.5557 87.2998 11.4668 87.7783 11.4668C88.3069 11.4668 88.7695 11.5557 89.166 11.7334C89.5625 11.9111 89.8906 12.1618 90.1504 12.4854C90.4147 12.8044 90.6106 13.1849 90.7383 13.627C90.8704 14.069 90.9365 14.5566 90.9365 15.0898V15.7939H85.2216V14.6113H89.3095V14.4814C89.3004 14.1852 89.2412 13.9072 89.1318 13.6475C89.027 13.3877 88.8652 13.1781 88.6465 13.0186C88.4277 12.859 88.136 12.7793 87.7715 12.7793C87.498 12.7793 87.2542 12.8385 87.04 12.957C86.8304 13.071 86.6549 13.2373 86.5136 13.4561C86.3724 13.6748 86.263 13.9391 86.1855 14.249C86.1126 14.5544 86.0761 14.8984 86.0761 15.2812V15.5547C86.0761 15.8783 86.1194 16.179 86.206 16.457C86.2972 16.7305 86.4293 16.9697 86.6025 17.1748C86.7757 17.3799 86.9853 17.5417 87.2314 17.6602C87.4775 17.7741 87.7578 17.8311 88.0722 17.8311C88.4687 17.8311 88.8219 17.7513 89.1318 17.5918C89.4417 17.4323 89.7106 17.2067 89.9384 16.915L90.8066 17.7559C90.6471 17.9883 90.4397 18.2116 90.1845 18.4258C89.9293 18.6354 89.6172 18.8063 89.248 18.9385C88.8834 19.0706 88.4596 19.1367 87.9765 19.1367Z" fill="#B05920"/>
<rect x="102" y="16.4" width="1.95122" height="4" rx="0.97561" fill="#DC8333"/>
<rect x="109.805" y="8.39999" width="1.95122" height="12" rx="0.97561" fill="#DC8333" fill-opacity="0.25"/>
<rect x="105.902" y="12.3999" width="1.95122" height="8" rx="0.97561" fill="#DC8333"/>
</svg>
